<svg width="32" height="32" viewBox="0 0 32 32" xmlns="http://www.w3.org/2000/svg" shape-rendering="crispEdges">
    <rect x="5" y="0" width="4" height="1" fill="#644632" /><rect x="9" y="0" width="10" height="1" fill="#785a46" /><rect x="20" y="0" width="2" height="1" fill="#785a46" /><rect x="22" y="0" width="6" height="1" fill="#644632" /><rect x="3" y="1" width="4" height="1" fill="#644632" /><rect x="7" y="1" width="6" height="1" fill="#785a46" /><rect x="14" y="1" width="4" height="1" fill="#a0a096" /><rect x="19" y="1" width="5" height="1" fill="#785a46" /><rect x="24" y="1" width="1" height="1" fill="#644632" /><rect x="26" y="1" width="3" height="1" fill="#644632" /><rect x="2" y="2" width="4" height="1" fill="#644632" /><rect x="6" y="2" width="4" height="1" fill="#785a46" /><rect x="10" y="2" width="2" height="1" fill="#a0a096" /><rect x="13" y="2" width="9" height="1" fill="#a0a096" /><rect x="22" y="2" width="4" height="1" fill="#785a46" /><rect x="26" y="2" width="4" height="1" fill="#644632" /><rect x="1" y="3" width="3" height="1" fill="#644632" /><rect x="4" y="3" width="4" height="1" fill="#785a46" /><rect x="8" y="3" width="16" height="1" fill="#a0a096" /><rect x="24" y="3" width="3" height="1" fill="#785a46" /><rect x="27" y="3" width="4" height="1" fill="#644632" /><rect x="0" y="4" width="4" height="1" fill="#644632" /><rect x="4" y="4" width="2" height="1" fill="#785a46" /><rect x="6" y="4" width="6" height="1" fill="#a0a096" /><rect x="12" y="4" width="6" height="1" fill="#c8c8be" /><rect x="18" y="4" width="7" height="1" fill="#a0a096" /><rect x="25" y="4" width="3" height="1" fill="#785a46" /><rect x="28" y="4" width="4" height="1" fill="#644632" /><rect x="0" y="5" width="3" height="1" fill="#644632" /><rect x="3" y="5" width="2" height="1" fill="#785a46" /><rect x="5" y="5" width="3" height="1" fill="#a0a096" /><rect x="9" y="5" width="1" height="1" fill="#a0a096" /><rect x="10" y="5" width="9" height="1" fill="#c8c8be" /><rect x="20" y="5" width="1" height="1" fill="#c8c8be" /><rect x="21" y="5" width="6" height="1" fill="#a0a096" /><rect x="27" y="5" width="2" height="1" fill="#785a46" /><rect x="29" y="5" width="3" height="1" fill="#644632" /><rect x="0" y="6" width="2" height="1" fill="#644632" /><rect x="2" y="6" width="2" height="1" fill="#785a46" /><rect x="4" y="6" width="4" height="1" fill="#a0a096" /><rect x="8" y="6" width="15" height="1" fill="#c8c8be" /><rect x="23" y="6" width="1" height="1" fill="#a0a096" /><rect x="25" y="6" width="3" height="1" fill="#a0a096" /><rect x="28" y="6" width="2" height="1" fill="#785a46" /><rect x="30" y="6" width="2" height="1" fill="#644632" /><rect x="0" y="7" width="1" height="1" fill="#644632" /><rect x="1" y="7" width="2" height="1" fill="#785a46" /><rect x="4" y="7" width="3" height="1" fill="#a0a096" /><rect x="7" y="7" width="17" height="1" fill="#c8c8be" /><rect x="24" y="7" width="4" height="1" fill="#a0a096" /><rect x="28" y="7" width="3" height="1" fill="#785a46" /><rect x="31" y="7" width="1" height="1" fill="#644632" /><rect x="0" y="8" width="1" height="1" fill="#644632" /><rect x="1" y="8" width="2" height="1" fill="#785a46" /><rect x="3" y="8" width="3" height="1" fill="#a0a096" /><rect x="6" y="8" width="13" height="1" fill="#c8c8be" /><rect x="20" y="8" width="6" height="1" fill="#c8c8be" /><rect x="26" y="8" width="3" height="1" fill="#a0a096" /><rect x="29" y="8" width="2" height="1" fill="#785a46" /><rect x="31" y="8" width="1" height="1" fill="#644632" /><rect x="0" y="9" width="1" height="1" fill="#644632" /><rect x="1" y="9" width="2" height="1" fill="#785a46" /><rect x="3" y="9" width="3" height="1" fill="#a0a096" /><rect x="6" y="9" width="20" height="1" fill="#c8c8be" /><rect x="26" y="9" width="4" height="1" fill="#a0a096" /><rect x="30" y="9" width="2" height="1" fill="#785a46" /><rect x="0" y="10" width="2" height="1" fill="#785a46" /><rect x="2" y="10" width="1" height="1" fill="#a0a096" /><rect x="4" y="10" width="1" height="1" fill="#a0a096" /><rect x="5" y="10" width="22" height="1" fill="#c8c8be" /><rect x="27" y="10" width="3" height="1" fill="#a0a096" /><rect x="30" y="10" width="2" height="1" fill="#785a46" /><rect x="0" y="11" width="2" height="1" fill="#785a46" /><rect x="2" y="11" width="3" height="1" fill="#a0a096" /><rect x="5" y="11" width="8" height="1" fill="#c8c8be" /><rect x="14" y="11" width="2" height="1" fill="#c8c8be" /><rect x="17" y="11" width="7" height="1" fill="#c8c8be" /><rect x="25" y="11" width="3" height="1" fill="#c8c8be" /><rect x="28" y="11" width="2" height="1" fill="#a0a096" /><rect x="30" y="11" width="2" height="1" fill="#785a46" /><rect x="0" y="12" width="2" height="1" fill="#785a46" /><rect x="2" y="12" width="3" height="1" fill="#a0a096" /><rect x="5" y="12" width="23" height="1" fill="#c8c8be" /><rect x="28" y="12" width="3" height="1" fill="#a0a096" /><rect x="31" y="12" width="1" height="1" fill="#785a46" /><rect x="0" y="13" width="2" height="1" fill="#785a46" /><rect x="2" y="13" width="3" height="1" fill="#a0a096" /><rect x="5" y="13" width="9" height="1" fill="#c8c8be" /><rect x="15" y="13" width="8" height="1" fill="#c8c8be" /><rect x="24" y="13" width="4" height="1" fill="#c8c8be" /><rect x="28" y="13" width="3" height="1" fill="#a0a096" /><rect x="31" y="13" width="1" height="1" fill="#785a46" /><rect x="1" y="14" width="1" height="1" fill="#785a46" /><rect x="2" y="14" width="1" height="1" fill="#a0a096" /><rect x="4" y="14" width="1" height="1" fill="#a0a096" /><rect x="5" y="14" width="23" height="1" fill="#c8c8be" /><rect x="28" y="14" width="3" height="1" fill="#a0a096" /><rect x="0" y="15" width="2" height="1" fill="#785a46" /><rect x="2" y="15" width="3" height="1" fill="#a0a096" /><rect x="5" y="15" width="17" height="1" fill="#c8c8be" /><rect x="23" y="15" width="5" height="1" fill="#c8c8be" /><rect x="28" y="15" width="3" height="1" fill="#a0a096" /><rect x="31" y="15" width="1" height="1" fill="#785a46" /><rect x="0" y="16" width="2" height="1" fill="#785a46" /><rect x="2" y="16" width="3" height="1" fill="#a0a096" /><rect x="5" y="16" width="3" height="1" fill="#c8c8be" /><rect x="9" y="16" width="16" height="1" fill="#c8c8be" /><rect x="27" y="16" width="1" height="1" fill="#c8c8be" /><rect x="29" y="16" width="2" height="1" fill="#a0a096" /><rect x="31" y="16" width="1" height="1" fill="#785a46" /><rect x="0" y="17" width="2" height="1" fill="#785a46" /><rect x="2" y="17" width="3" height="1" fill="#a0a096" /><rect x="5" y="17" width="7" height="1" fill="#c8c8be" /><rect x="13" y="17" width="7" height="1" fill="#c8c8be" /><rect x="21" y="17" width="7" height="1" fill="#c8c8be" /><rect x="28" y="17" width="3" height="1" fill="#a0a096" /><rect x="31" y="17" width="1" height="1" fill="#785a46" /><rect x="0" y="18" width="2" height="1" fill="#785a46" /><rect x="2" y="18" width="3" height="1" fill="#a0a096" /><rect x="5" y="18" width="3" height="1" fill="#c8c8be" /><rect x="9" y="18" width="4" height="1" fill="#c8c8be" /><rect x="14" y="18" width="9" height="1" fill="#c8c8be" /><rect x="24" y="18" width="4" height="1" fill="#c8c8be" /><rect x="28" y="18" width="3" height="1" fill="#a0a096" /><rect x="31" y="18" width="1" height="1" fill="#785a46" /><rect x="0" y="19" width="3" height="1" fill="#785a46" /><rect x="3" y="19" width="3" height="1" fill="#a0a096" /><rect x="6" y="19" width="22" height="1" fill="#c8c8be" /><rect x="28" y="19" width="2" height="1" fill="#a0a096" /><rect x="30" y="19" width="2" height="1" fill="#785a46" /><rect x="0" y="20" width="1" height="1" fill="#644632" /><rect x="1" y="20" width="2" height="1" fill="#785a46" /><rect x="3" y="20" width="3" height="1" fill="#a0a096" /><rect x="6" y="20" width="4" height="1" fill="#c8c8be" /><rect x="11" y="20" width="16" height="1" fill="#c8c8be" /><rect x="27" y="20" width="3" height="1" fill="#a0a096" /><rect x="30" y="20" width="2" height="1" fill="#785a46" /><rect x="0" y="21" width="1" height="1" fill="#644632" /><rect x="1" y="21" width="2" height="1" fill="#785a46" /><rect x="3" y="21" width="4" height="1" fill="#a0a096" /><rect x="7" y="21" width="20" height="1" fill="#c8c8be" /><rect x="27" y="21" width="3" height="1" fill="#a0a096" /><rect x="30" y="21" width="2" height="1" fill="#785a46" /><rect x="0" y="22" width="2" height="1" fill="#644632" /><rect x="2" y="22" width="2" height="1" fill="#785a46" /><rect x="4" y="22" width="3" height="1" fill="#a0a096" /><rect x="7" y="22" width="1" height="1" fill="#c8c8be" /><rect x="9" y="22" width="13" height="1" fill="#c8c8be" /><rect x="23" y="22" width="3" height="1" fill="#c8c8be" /><rect x="26" y="22" width="3" height="1" fill="#a0a096" /><rect x="29" y="22" width="3" height="1" fill="#785a46" /><rect x="0" y="23" width="2" height="1" fill="#644632" /><rect x="2" y="23" width="3" height="1" fill="#785a46" /><rect x="5" y="23" width="3" height="1" fill="#a0a096" /><rect x="8" y="23" width="13" height="1" fill="#c8c8be" /><rect x="22" y="23" width="3" height="1" fill="#c8c8be" /><rect x="25" y="23" width="4" height="1" fill="#a0a096" /><rect x="29" y="23" width="2" height="1" fill="#785a46" /><rect x="31" y="23" width="1" height="1" fill="#644632" /><rect x="0" y="24" width="3" height="1" fill="#644632" /><rect x="3" y="24" width="2" height="1" fill="#785a46" /><rect x="5" y="24" width="4" height="1" fill="#a0a096" /><rect x="9" y="24" width="1" height="1" fill="#c8c8be" /><rect x="11" y="24" width="13" height="1" fill="#c8c8be" /><rect x="24" y="24" width="4" height="1" fill="#a0a096" /><rect x="28" y="24" width="2" height="1" fill="#785a46" /><rect x="30" y="24" width="2" height="1" fill="#644632" /><rect x="0" y="25" width="3" height="1" fill="#644632" /><rect x="3" y="25" width="3" height="1" fill="#785a46" /><rect x="6" y="25" width="2" height="1" fill="#a0a096" /><rect x="9" y="25" width="1" height="1" fill="#a0a096" /><rect x="10" y="25" width="1" height="1" fill="#c8c8be" /><rect x="12" y="25" width="5" height="1" fill="#c8c8be" /><rect x="18" y="25" width="5" height="1" fill="#c8c8be" /><rect x="23" y="25" width="4" height="1" fill="#a0a096" /><rect x="27" y="25" width="1" height="1" fill="#785a46" /><rect x="29" y="25" width="1" height="1" fill="#785a46" /><rect x="30" y="25" width="2" height="1" fill="#644632" /><rect x="1" y="26" width="3" height="1" fill="#644632" /><rect x="4" y="26" width="3" height="1" fill="#785a46" /><rect x="7" y="26" width="5" height="1" fill="#a0a096" /><rect x="12" y="26" width="9" height="1" fill="#c8c8be" /><rect x="21" y="26" width="5" height="1" fill="#a0a096" /><rect x="26" y="26" width="3" height="1" fill="#785a46" /><rect x="29" y="26" width="3" height="1" fill="#644632" /><rect x="1" y="27" width="4" height="1" fill="#644632" /><rect x="5" y="27" width="3" height="1" fill="#785a46" /><rect x="8" y="27" width="17" height="1" fill="#a0a096" /><rect x="25" y="27" width="3" height="1" fill="#785a46" /><rect x="28" y="27" width="4" height="1" fill="#644632" /><rect x="2" y="28" width="4" height="1" fill="#644632" /><rect x="6" y="28" width="2" height="1" fill="#785a46" /><rect x="9" y="28" width="1" height="1" fill="#785a46" /><rect x="10" y="28" width="9" height="1" fill="#a0a096" /><rect x="20" y="28" width="3" height="1" fill="#a0a096" /><rect x="23" y="28" width="4" height="1" fill="#785a46" /><rect x="27" y="28" width="4" height="1" fill="#644632" /><rect x="3" y="29" width="5" height="1" fill="#644632" /><rect x="8" y="29" width="4" height="1" fill="#785a46" /><rect x="12" y="29" width="9" height="1" fill="#a0a096" /><rect x="21" y="29" width="5" height="1" fill="#785a46" /><rect x="26" y="29" width="1" height="1" fill="#644632" /><rect x="28" y="29" width="2" height="1" fill="#644632" /><rect x="4" y="30" width="5" height="1" fill="#644632" /><rect x="9" y="30" width="15" height="1" fill="#785a46" /><rect x="24" y="30" width="2" height="1" fill="#644632" /><rect x="27" y="30" width="2" height="1" fill="#644632" /><rect x="6" y="31" width="6" height="1" fill="#644632" /><rect x="12" y="31" width="9" height="1" fill="#785a46" /><rect x="21" y="31" width="3" height="1" fill="#644632" /><rect x="25" y="31" width="2" height="1" fill="#644632" />
</svg>