<svg width="32" height="32" viewBox="0 0 32 32" xmlns="http://www.w3.org/2000/svg" shape-rendering="crispEdges">
    <rect x="16" y="4" width="1" height="1" fill="#a0a096" /><rect x="13" y="5" width="3" height="1" fill="#a0a096" /><rect x="16" y="5" width="1" height="1" fill="#c8c8be" /><rect x="17" y="5" width="4" height="1" fill="#a0a096" /><rect x="11" y="6" width="1" height="1" fill="#a0a096" /><rect x="12" y="6" width="2" height="1" fill="#c8c8be" /><rect x="15" y="6" width="6" height="1" fill="#c8c8be" /><rect x="21" y="6" width="2" height="1" fill="#a0a096" /><rect x="9" y="7" width="1" height="1" fill="#a0a096" /><rect x="10" y="7" width="6" height="1" fill="#c8c8be" /><rect x="16" y="7" width="1" height="1" fill="#644632" /><rect x="17" y="7" width="6" height="1" fill="#c8c8be" /><rect x="23" y="7" width="1" height="1" fill="#a0a096" /><rect x="8" y="8" width="1" height="1" fill="#a0a096" /><rect x="9" y="8" width="2" height="1" fill="#c8c8be" /><rect x="12" y="8" width="7" height="1" fill="#644632" /><rect x="19" y="8" width="2" height="1" fill="#503228" /><rect x="21" y="8" width="3" height="1" fill="#c8c8be" /><rect x="24" y="8" width="1" height="1" fill="#a0a096" /><rect x="7" y="9" width="1" height="1" fill="#a0a096" /><rect x="8" y="9" width="3" height="1" fill="#c8c8be" /><rect x="11" y="9" width="9" height="1" fill="#644632" /><rect x="20" y="9" width="2" height="1" fill="#503228" /><rect x="22" y="9" width="3" height="1" fill="#c8c8be" /><rect x="25" y="9" width="1" height="1" fill="#a0a096" /><rect x="6" y="10" width="1" height="1" fill="#a0a096" /><rect x="7" y="10" width="3" height="1" fill="#c8c8be" /><rect x="10" y="10" width="6" height="1" fill="#503228" /><rect x="16" y="10" width="5" height="1" fill="#644632" /><rect x="21" y="10" width="1" height="1" fill="#503228" /><rect x="23" y="10" width="3" height="1" fill="#c8c8be" /><rect x="26" y="10" width="1" height="1" fill="#a0a096" /><rect x="6" y="11" width="1" height="1" fill="#a0a096" /><rect x="7" y="11" width="2" height="1" fill="#c8c8be" /><rect x="9" y="11" width="1" height="1" fill="#503228" /><rect x="11" y="11" width="2" height="1" fill="#c8c8be" /><rect x="13" y="11" width="1" height="1" fill="#503228" /><rect x="15" y="11" width="3" height="1" fill="#503228" /><rect x="18" y="11" width="3" height="1" fill="#644632" /><rect x="21" y="11" width="3" height="1" fill="#503228" /><rect x="24" y="11" width="2" height="1" fill="#c8c8be" /><rect x="26" y="11" width="1" height="1" fill="#a0a096" /><rect x="5" y="12" width="1" height="1" fill="#a0a096" /><rect x="6" y="12" width="2" height="1" fill="#c8c8be" /><rect x="8" y="12" width="2" height="1" fill="#503228" /><rect x="11" y="12" width="2" height="1" fill="#c8c8be" /><rect x="13" y="12" width="1" height="1" fill="#503228" /><rect x="15" y="12" width="3" height="1" fill="#503228" /><rect x="18" y="12" width="4" height="1" fill="#644632" /><rect x="22" y="12" width="3" height="1" fill="#503228" /><rect x="25" y="12" width="2" height="1" fill="#c8c8be" /><rect x="27" y="12" width="1" height="1" fill="#a0a096" /><rect x="5" y="13" width="1" height="1" fill="#a0a096" /><rect x="6" y="13" width="2" height="1" fill="#c8c8be" /><rect x="8" y="13" width="4" height="1" fill="#503228" /><rect x="12" y="13" width="4" height="1" fill="#644632" /><rect x="16" y="13" width="3" height="1" fill="#503228" /><rect x="19" y="13" width="3" height="1" fill="#644632" /><rect x="22" y="13" width="3" height="1" fill="#503228" /><rect x="25" y="13" width="2" height="1" fill="#c8c8be" /><rect x="27" y="13" width="1" height="1" fill="#a0a096" /><rect x="5" y="14" width="1" height="1" fill="#a0a096" /><rect x="6" y="14" width="2" height="1" fill="#c8c8be" /><rect x="8" y="14" width="2" height="1" fill="#503228" /><rect x="10" y="14" width="6" height="1" fill="#644632" /><rect x="16" y="14" width="3" height="1" fill="#503228" /><rect x="19" y="14" width="1" height="1" fill="#644632" /><rect x="21" y="14" width="4" height="1" fill="#503228" /><rect x="25" y="14" width="2" height="1" fill="#c8c8be" /><rect x="27" y="14" width="1" height="1" fill="#a0a096" /><rect x="5" y="15" width="1" height="1" fill="#a0a096" /><rect x="6" y="15" width="2" height="1" fill="#c8c8be" /><rect x="8" y="15" width="1" height="1" fill="#503228" /><rect x="9" y="15" width="5" height="1" fill="#644632" /><rect x="15" y="15" width="2" height="1" fill="#644632" /><rect x="17" y="15" width="1" height="1" fill="#503228" /><rect x="18" y="15" width="3" height="1" fill="#644632" /><rect x="21" y="15" width="4" height="1" fill="#503228" /><rect x="25" y="15" width="2" height="1" fill="#c8c8be" /><rect x="27" y="15" width="1" height="1" fill="#a0a096" /><rect x="4" y="16" width="1" height="1" fill="#a0a096" /><rect x="5" y="16" width="2" height="1" fill="#c8c8be" /><rect x="7" y="16" width="2" height="1" fill="#503228" /><rect x="9" y="16" width="4" height="1" fill="#644632" /><rect x="13" y="16" width="4" height="1" fill="#503228" /><rect x="18" y="16" width="2" height="1" fill="#644632" /><rect x="20" y="16" width="4" height="1" fill="#503228" /><rect x="24" y="16" width="2" height="1" fill="#644632" /><rect x="26" y="16" width="2" height="1" fill="#c8c8be" /><rect x="28" y="16" width="1" height="1" fill="#a0a096" /><rect x="5" y="17" width="1" height="1" fill="#a0a096" /><rect x="6" y="17" width="2" height="1" fill="#c8c8be" /><rect x="8" y="17" width="4" height="1" fill="#644632" /><rect x="12" y="17" width="3" height="1" fill="#503228" /><rect x="15" y="17" width="1" height="1" fill="#644632" /><rect x="16" y="17" width="8" height="1" fill="#503228" /><rect x="24" y="17" width="1" height="1" fill="#644632" /><rect x="25" y="17" width="2" height="1" fill="#c8c8be" /><rect x="27" y="17" width="1" height="1" fill="#a0a096" /><rect x="5" y="18" width="1" height="1" fill="#a0a096" /><rect x="6" y="18" width="2" height="1" fill="#c8c8be" /><rect x="8" y="18" width="4" height="1" fill="#644632" /><rect x="12" y="18" width="2" height="1" fill="#503228" /><rect x="14" y="18" width="3" height="1" fill="#644632" /><rect x="17" y="18" width="6" height="1" fill="#503228" /><rect x="23" y="18" width="2" height="1" fill="#644632" /><rect x="25" y="18" width="2" height="1" fill="#c8c8be" /><rect x="27" y="18" width="1" height="1" fill="#a0a096" /><rect x="5" y="19" width="1" height="1" fill="#a0a096" /><rect x="6" y="19" width="2" height="1" fill="#c8c8be" /><rect x="8" y="19" width="3" height="1" fill="#644632" /><rect x="11" y="19" width="3" height="1" fill="#503228" /><rect x="14" y="19" width="3" height="1" fill="#644632" /><rect x="17" y="19" width="4" height="1" fill="#503228" /><rect x="21" y="19" width="4" height="1" fill="#644632" /><rect x="25" y="19" width="2" height="1" fill="#c8c8be" /><rect x="27" y="19" width="1" height="1" fill="#a0a096" /><rect x="5" y="20" width="1" height="1" fill="#a0a096" /><rect x="7" y="20" width="1" height="1" fill="#c8c8be" /><rect x="8" y="20" width="3" height="1" fill="#644632" /><rect x="11" y="20" width="4" height="1" fill="#503228" /><rect x="15" y="20" width="4" height="1" fill="#644632" /><rect x="20" y="20" width="5" height="1" fill="#644632" /><rect x="25" y="20" width="2" height="1" fill="#c8c8be" /><rect x="27" y="20" width="1" height="1" fill="#a0a096" /><rect x="6" y="21" width="1" height="1" fill="#a0a096" /><rect x="7" y="21" width="2" height="1" fill="#c8c8be" /><rect x="9" y="21" width="3" height="1" fill="#644632" /><rect x="12" y="21" width="3" height="1" fill="#503228" /><rect x="15" y="21" width="9" height="1" fill="#644632" /><rect x="24" y="21" width="2" height="1" fill="#c8c8be" /><rect x="26" y="21" width="1" height="1" fill="#a0a096" /><rect x="6" y="22" width="1" height="1" fill="#a0a096" /><rect x="7" y="22" width="3" height="1" fill="#c8c8be" /><rect x="10" y="22" width="2" height="1" fill="#644632" /><rect x="12" y="22" width="5" height="1" fill="#503228" /><rect x="17" y="22" width="6" height="1" fill="#644632" /><rect x="23" y="22" width="3" height="1" fill="#c8c8be" /><rect x="26" y="22" width="1" height="1" fill="#a0a096" /><rect x="7" y="23" width="1" height="1" fill="#a0a096" /><rect x="8" y="23" width="3" height="1" fill="#c8c8be" /><rect x="11" y="23" width="2" height="1" fill="#644632" /><rect x="13" y="23" width="9" height="1" fill="#503228" /><rect x="22" y="23" width="3" height="1" fill="#c8c8be" /><rect x="25" y="23" width="1" height="1" fill="#a0a096" /><rect x="8" y="24" width="1" height="1" fill="#a0a096" /><rect x="9" y="24" width="3" height="1" fill="#c8c8be" /><rect x="12" y="24" width="2" height="1" fill="#644632" /><rect x="14" y="24" width="7" height="1" fill="#503228" /><rect x="21" y="24" width="3" height="1" fill="#c8c8be" /><rect x="24" y="24" width="1" height="1" fill="#a0a096" /><rect x="9" y="25" width="1" height="1" fill="#a0a096" /><rect x="10" y="25" width="6" height="1" fill="#c8c8be" /><rect x="16" y="25" width="1" height="1" fill="#503228" /><rect x="17" y="25" width="6" height="1" fill="#c8c8be" /><rect x="23" y="25" width="1" height="1" fill="#a0a096" /><rect x="10" y="26" width="2" height="1" fill="#a0a096" /><rect x="12" y="26" width="9" height="1" fill="#c8c8be" /><rect x="21" y="26" width="2" height="1" fill="#a0a096" /><rect x="12" y="27" width="4" height="1" fill="#a0a096" /><rect x="16" y="27" width="1" height="1" fill="#c8c8be" /><rect x="17" y="27" width="4" height="1" fill="#a0a096" /><rect x="16" y="28" width="1" height="1" fill="#a0a096" />
</svg>