<svg width="32" height="32" viewBox="0 0 32 32" xmlns="http://www.w3.org/2000/svg" shape-rendering="crispEdges">
    <rect x="15" y="7" width="3" height="1" fill="#785a46" /><rect x="14" y="8" width="2" height="1" fill="#c8c8be" /><rect x="16" y="8" width="3" height="1" fill="#785a46" /><rect x="13" y="9" width="1" height="1" fill="#785a46" /><rect x="14" y="9" width="1" height="1" fill="#a0a096" /><rect x="15" y="9" width="5" height="1" fill="#785a46" /><rect x="12" y="10" width="1" height="1" fill="#644632" /><rect x="13" y="10" width="7" height="1" fill="#785a46" /><rect x="10" y="11" width="3" height="1" fill="#644632" /><rect x="13" y="11" width="7" height="1" fill="#785a46" /><rect x="22" y="11" width="1" height="1" fill="#785a46" /><rect x="10" y="12" width="2" height="1" fill="#c8c8be" /><rect x="12" y="12" width="2" height="1" fill="#644632" /><rect x="14" y="12" width="2" height="1" fill="#785a46" /><rect x="17" y="12" width="2" height="1" fill="#785a46" /><rect x="19" y="12" width="1" height="1" fill="#644632" /><rect x="20" y="12" width="2" height="1" fill="#c8c8be" /><rect x="22" y="12" width="3" height="1" fill="#785a46" /><rect x="11" y="13" width="2" height="1" fill="#644632" /><rect x="13" y="13" width="2" height="1" fill="#c8c8be" /><rect x="15" y="13" width="3" height="1" fill="#785a46" /><rect x="18" y="13" width="2" height="1" fill="#644632" /><rect x="20" y="13" width="1" height="1" fill="#a0a096" /><rect x="21" y="13" width="3" height="1" fill="#785a46" /><rect x="8" y="14" width="5" height="1" fill="#644632" /><rect x="13" y="14" width="1" height="1" fill="#a0a096" /><rect x="14" y="14" width="5" height="1" fill="#503228" /><rect x="19" y="14" width="7" height="1" fill="#785a46" /><rect x="9" y="15" width="1" height="1" fill="#644632" /><rect x="10" y="15" width="1" height="1" fill="#785a46" /><rect x="11" y="15" width="2" height="1" fill="#644632" /><rect x="13" y="15" width="7" height="1" fill="#503228" /><rect x="20" y="15" width="5" height="1" fill="#785a46" /><rect x="8" y="16" width="2" height="1" fill="#c8c8be" /><rect x="10" y="16" width="3" height="1" fill="#785a46" /><rect x="13" y="16" width="5" height="1" fill="#503228" /><rect x="18" y="16" width="1" height="1" fill="#c8c8be" /><rect x="20" y="16" width="5" height="1" fill="#785a46" /><rect x="8" y="17" width="1" height="1" fill="#a0a096" /><rect x="9" y="17" width="4" height="1" fill="#785a46" /><rect x="13" y="17" width="5" height="1" fill="#503228" /><rect x="18" y="17" width="1" height="1" fill="#a0a096" /><rect x="19" y="17" width="1" height="1" fill="#503228" /><rect x="20" y="17" width="2" height="1" fill="#644632" /><rect x="22" y="17" width="1" height="1" fill="#785a46" /><rect x="23" y="17" width="1" height="1" fill="#644632" /><rect x="7" y="18" width="7" height="1" fill="#785a46" /><rect x="14" y="18" width="5" height="1" fill="#503228" /><rect x="19" y="18" width="6" height="1" fill="#644632" /><rect x="8" y="19" width="4" height="1" fill="#785a46" /><rect x="13" y="19" width="2" height="1" fill="#644632" /><rect x="15" y="19" width="3" height="1" fill="#785a46" /><rect x="18" y="19" width="6" height="1" fill="#644632" /><rect x="8" y="20" width="3" height="1" fill="#785a46" /><rect x="12" y="20" width="1" height="1" fill="#785a46" /><rect x="13" y="20" width="1" height="1" fill="#644632" /><rect x="14" y="20" width="2" height="1" fill="#c8c8be" /><rect x="16" y="20" width="3" height="1" fill="#785a46" /><rect x="19" y="20" width="5" height="1" fill="#644632" /><rect x="10" y="21" width="1" height="1" fill="#785a46" /><rect x="13" y="21" width="1" height="1" fill="#785a46" /><rect x="14" y="21" width="1" height="1" fill="#a0a096" /><rect x="15" y="21" width="5" height="1" fill="#785a46" /><rect x="20" y="21" width="3" height="1" fill="#644632" /><rect x="13" y="22" width="3" height="1" fill="#785a46" /><rect x="17" y="22" width="3" height="1" fill="#785a46" /><rect x="20" y="22" width="1" height="1" fill="#644632" /><rect x="13" y="23" width="2" height="1" fill="#785a46" /><rect x="17" y="23" width="3" height="1" fill="#785a46" /><rect x="14" y="24" width="5" height="1" fill="#785a46" /><rect x="15" y="25" width="3" height="1" fill="#785a46" />
</svg>