<svg width="32" height="32" viewBox="0 0 32 32" xmlns="http://www.w3.org/2000/svg" shape-rendering="crispEdges">
    <rect x="15" y="2" width="3" height="1" fill="#3296c8" /><rect x="15" y="3" width="3" height="1" fill="#3296c8" /><rect x="16" y="4" width="1" height="1" fill="#64646e" /><rect x="12" y="5" width="9" height="1" fill="#64646e" /><rect x="10" y="6" width="13" height="1" fill="#64646e" /><rect x="9" y="7" width="3" height="1" fill="#64646e" /><rect x="12" y="7" width="9" height="1" fill="#0a1e32" /><rect x="21" y="7" width="3" height="1" fill="#64646e" /><rect x="8" y="8" width="3" height="1" fill="#64646e" /><rect x="11" y="8" width="11" height="1" fill="#0a1e32" /><rect x="22" y="8" width="3" height="1" fill="#64646e" /><rect x="7" y="9" width="2" height="1" fill="#64646e" /><rect x="9" y="9" width="15" height="1" fill="#0a1e32" /><rect x="24" y="9" width="2" height="1" fill="#64646e" /><rect x="6" y="10" width="3" height="1" fill="#64646e" /><rect x="9" y="10" width="15" height="1" fill="#0a1e32" /><rect x="24" y="10" width="3" height="1" fill="#64646e" /><rect x="6" y="11" width="2" height="1" fill="#64646e" /><rect x="8" y="11" width="17" height="1" fill="#0a1e32" /><rect x="25" y="11" width="2" height="1" fill="#64646e" /><rect x="5" y="12" width="2" height="1" fill="#64646e" /><rect x="7" y="12" width="19" height="1" fill="#0a1e32" /><rect x="26" y="12" width="2" height="1" fill="#64646e" /><rect x="5" y="13" width="2" height="1" fill="#64646e" /><rect x="7" y="13" width="7" height="1" fill="#0a1e32" /><rect x="14" y="13" width="5" height="1" fill="#3296c8" /><rect x="19" y="13" width="7" height="1" fill="#0a1e32" /><rect x="26" y="13" width="2" height="1" fill="#64646e" /><rect x="5" y="14" width="2" height="1" fill="#64646e" /><rect x="7" y="14" width="6" height="1" fill="#0a1e32" /><rect x="13" y="14" width="7" height="1" fill="#3296c8" /><rect x="20" y="14" width="6" height="1" fill="#0a1e32" /><rect x="26" y="14" width="2" height="1" fill="#64646e" /><rect x="2" y="15" width="2" height="1" fill="#3296c8" /><rect x="5" y="15" width="2" height="1" fill="#64646e" /><rect x="7" y="15" width="6" height="1" fill="#0a1e32" /><rect x="13" y="15" width="7" height="1" fill="#3296c8" /><rect x="20" y="15" width="6" height="1" fill="#0a1e32" /><rect x="26" y="15" width="2" height="1" fill="#64646e" /><rect x="29" y="15" width="2" height="1" fill="#3296c8" /><rect x="2" y="16" width="2" height="1" fill="#3296c8" /><rect x="4" y="16" width="3" height="1" fill="#64646e" /><rect x="7" y="16" width="6" height="1" fill="#0a1e32" /><rect x="13" y="16" width="7" height="1" fill="#3296c8" /><rect x="20" y="16" width="6" height="1" fill="#0a1e32" /><rect x="26" y="16" width="3" height="1" fill="#64646e" /><rect x="29" y="16" width="2" height="1" fill="#3296c8" /><rect x="2" y="17" width="2" height="1" fill="#3296c8" /><rect x="5" y="17" width="2" height="1" fill="#64646e" /><rect x="7" y="17" width="6" height="1" fill="#0a1e32" /><rect x="13" y="17" width="7" height="1" fill="#3296c8" /><rect x="20" y="17" width="6" height="1" fill="#0a1e32" /><rect x="26" y="17" width="2" height="1" fill="#64646e" /><rect x="29" y="17" width="2" height="1" fill="#3296c8" /><rect x="5" y="18" width="2" height="1" fill="#64646e" /><rect x="7" y="18" width="6" height="1" fill="#0a1e32" /><rect x="13" y="18" width="7" height="1" fill="#3296c8" /><rect x="20" y="18" width="6" height="1" fill="#0a1e32" /><rect x="26" y="18" width="2" height="1" fill="#64646e" /><rect x="5" y="19" width="2" height="1" fill="#64646e" /><rect x="7" y="19" width="7" height="1" fill="#0a1e32" /><rect x="14" y="19" width="5" height="1" fill="#3296c8" /><rect x="19" y="19" width="7" height="1" fill="#0a1e32" /><rect x="26" y="19" width="2" height="1" fill="#64646e" /><rect x="5" y="20" width="2" height="1" fill="#64646e" /><rect x="7" y="20" width="19" height="1" fill="#0a1e32" /><rect x="26" y="20" width="2" height="1" fill="#64646e" /><rect x="6" y="21" width="2" height="1" fill="#64646e" /><rect x="8" y="21" width="17" height="1" fill="#0a1e32" /><rect x="25" y="21" width="2" height="1" fill="#64646e" /><rect x="6" y="22" width="3" height="1" fill="#64646e" /><rect x="9" y="22" width="15" height="1" fill="#0a1e32" /><rect x="24" y="22" width="3" height="1" fill="#64646e" /><rect x="7" y="23" width="2" height="1" fill="#64646e" /><rect x="9" y="23" width="15" height="1" fill="#0a1e32" /><rect x="24" y="23" width="2" height="1" fill="#64646e" /><rect x="8" y="24" width="3" height="1" fill="#64646e" /><rect x="11" y="24" width="11" height="1" fill="#0a1e32" /><rect x="22" y="24" width="3" height="1" fill="#64646e" /><rect x="9" y="25" width="3" height="1" fill="#64646e" /><rect x="12" y="25" width="9" height="1" fill="#0a1e32" /><rect x="21" y="25" width="3" height="1" fill="#64646e" /><rect x="10" y="26" width="13" height="1" fill="#64646e" /><rect x="12" y="27" width="9" height="1" fill="#64646e" /><rect x="16" y="28" width="1" height="1" fill="#64646e" /><rect x="15" y="29" width="3" height="1" fill="#3296c8" /><rect x="15" y="30" width="3" height="1" fill="#3296c8" />
</svg>