<svg width="32" height="32" viewBox="0 0 32 32" xmlns="http://www.w3.org/2000/svg" shape-rendering="crispEdges">
    <rect x="23" y="6" width="1" height="1" fill="#a0a096" /><rect x="24" y="6" width="1" height="1" fill="#c8c8be" /><rect x="22" y="7" width="1" height="1" fill="#a0a096" /><rect x="17" y="8" width="5" height="1" fill="#a0a096" /><rect x="22" y="8" width="1" height="1" fill="#c8c8be" /><rect x="18" y="9" width="3" height="1" fill="#a0a096" /><rect x="21" y="9" width="1" height="1" fill="#c8c8be" /><rect x="16" y="10" width="4" height="1" fill="#a0a096" /><rect x="20" y="10" width="1" height="1" fill="#c8c8be" /><rect x="13" y="11" width="6" height="1" fill="#a0a096" /><rect x="19" y="11" width="1" height="1" fill="#c8c8be" /><rect x="13" y="12" width="2" height="1" fill="#a0a096" /><rect x="16" y="12" width="2" height="1" fill="#a0a096" /><rect x="18" y="12" width="1" height="1" fill="#c8c8be" /><rect x="11" y="13" width="6" height="1" fill="#a0a096" /><rect x="17" y="13" width="1" height="1" fill="#c8c8be" /><rect x="9" y="14" width="7" height="1" fill="#a0a096" /><rect x="16" y="14" width="1" height="1" fill="#c8c8be" /><rect x="10" y="15" width="4" height="1" fill="#a0a096" /><rect x="15" y="15" width="1" height="1" fill="#c8c8be" /><rect x="8" y="16" width="1" height="1" fill="#a0a096" /><rect x="10" y="16" width="4" height="1" fill="#a0a096" /><rect x="14" y="16" width="1" height="1" fill="#c8c8be" /><rect x="6" y="17" width="2" height="1" fill="#a0a096" /><rect x="9" y="17" width="4" height="1" fill="#a0a096" /><rect x="13" y="17" width="1" height="1" fill="#c8c8be" /><rect x="7" y="18" width="2" height="1" fill="#a0a096" /><rect x="10" y="18" width="2" height="1" fill="#a0a096" /><rect x="12" y="18" width="1" height="1" fill="#c8c8be" /><rect x="5" y="19" width="2" height="1" fill="#a0a096" /><rect x="8" y="19" width="3" height="1" fill="#a0a096" /><rect x="11" y="19" width="1" height="1" fill="#c8c8be" /><rect x="5" y="20" width="5" height="1" fill="#a0a096" /><rect x="10" y="20" width="1" height="1" fill="#c8c8be" /><rect x="4" y="21" width="4" height="1" fill="#a0a096" /><rect x="8" y="21" width="1" height="1" fill="#0f140f" /><rect x="9" y="21" width="1" height="1" fill="#050505" /><rect x="7" y="22" width="1" height="1" fill="#0f140f" /><rect x="6" y="23" width="1" height="1" fill="#0f140f" /><rect x="7" y="23" width="1" height="1" fill="#050505" /><rect x="5" y="24" width="1" height="1" fill="#0f140f" /><rect x="6" y="24" width="1" height="1" fill="#050505" /><rect x="4" y="25" width="1" height="1" fill="#0f140f" /><rect x="5" y="25" width="1" height="1" fill="#050505" />
</svg>