<svg width="32" height="32" viewBox="0 0 32 32" xmlns="http://www.w3.org/2000/svg" shape-rendering="crispEdges">
    <rect x="14" y="12" width="7" height="1" fill="#0f140f" /><rect x="15" y="13" width="2" height="1" fill="#3c281e" /><rect x="17" y="13" width="1" height="1" fill="#503228" /><rect x="18" y="13" width="2" height="1" fill="#3c281e" /><rect x="20" y="13" width="1" height="1" fill="#503228" /><rect x="21" y="13" width="7" height="1" fill="#a0a096" /><rect x="3" y="14" width="1" height="1" fill="#320a0a" /><rect x="4" y="14" width="10" height="1" fill="#a0a096" /><rect x="14" y="14" width="2" height="1" fill="#3c281e" /><rect x="16" y="14" width="1" height="1" fill="#503228" /><rect x="17" y="14" width="2" height="1" fill="#3c281e" /><rect x="19" y="14" width="1" height="1" fill="#503228" /><rect x="20" y="14" width="5" height="1" fill="#3c281e" /><rect x="26" y="14" width="2" height="1" fill="#3c281e" /><rect x="4" y="15" width="10" height="1" fill="#a0a096" /><rect x="15" y="15" width="1" height="1" fill="#503228" /><rect x="16" y="15" width="2" height="1" fill="#3c281e" /><rect x="18" y="15" width="1" height="1" fill="#503228" /><rect x="19" y="15" width="2" height="1" fill="#3c281e" /><rect x="3" y="16" width="1" height="1" fill="#320a0a" /><rect x="4" y="16" width="10" height="1" fill="#a0a096" /><rect x="14" y="16" width="1" height="1" fill="#503228" /><rect x="15" y="16" width="1" height="1" fill="#3c281e" /><rect x="17" y="16" width="1" height="1" fill="#503228" /><rect x="18" y="16" width="2" height="1" fill="#3c281e" /><rect x="20" y="16" width="1" height="1" fill="#503228" /><rect x="21" y="16" width="4" height="1" fill="#a0a096" /><rect x="4" y="17" width="12" height="1" fill="#3c281e" /><rect x="16" y="17" width="1" height="1" fill="#503228" /><rect x="17" y="17" width="2" height="1" fill="#3c281e" /><rect x="19" y="17" width="1" height="1" fill="#503228" /><rect x="20" y="17" width="5" height="1" fill="#3c281e" /><rect x="3" y="18" width="1" height="1" fill="#320a0a" /><rect x="4" y="18" width="8" height="1" fill="#0f140f" /><rect x="14" y="18" width="1" height="1" fill="#3c281e" /><rect x="15" y="18" width="1" height="1" fill="#503228" /><rect x="17" y="18" width="1" height="1" fill="#3c281e" /><rect x="18" y="18" width="1" height="1" fill="#503228" /><rect x="19" y="18" width="2" height="1" fill="#3c281e" /><rect x="14" y="19" width="1" height="1" fill="#503228" /><rect x="15" y="19" width="2" height="1" fill="#3c281e" /><rect x="17" y="19" width="1" height="1" fill="#503228" /><rect x="18" y="19" width="2" height="1" fill="#3c281e" /><rect x="20" y="19" width="1" height="1" fill="#503228" /><rect x="21" y="19" width="7" height="1" fill="#a0a096" /><rect x="15" y="20" width="6" height="1" fill="#0f140f" /><rect x="21" y="20" width="7" height="1" fill="#3c281e" />
</svg>