<svg width="512" height="512" viewBox="0 0 512 512" xmlns="http://www.w3.org/2000/svg">
<rect x="256" y="32" width="16" height="16" fill="#c8c8be" shape-rendering="crispEdges" />
<rect x="256" y="48" width="16" height="16" fill="#c8c8be" shape-rendering="crispEdges" />
<rect x="256" y="64" width="16" height="16" fill="#320a0a" shape-rendering="crispEdges" />
<rect x="256" y="80" width="16" height="16" fill="#320a0a" shape-rendering="crispEdges" />
<rect x="256" y="96" width="16" height="16" fill="#320a0a" shape-rendering="crispEdges" />
<rect x="240" y="112" width="16" height="16" fill="#781414" shape-rendering="crispEdges" />
<rect x="256" y="112" width="16" height="16" fill="#320a0a" shape-rendering="crispEdges" />
<rect x="272" y="112" width="16" height="16" fill="#320a0a" shape-rendering="crispEdges" />
<rect x="240" y="128" width="16" height="16" fill="#781414" shape-rendering="crispEdges" />
<rect x="256" y="128" width="16" height="16" fill="#320a0a" shape-rendering="crispEdges" />
<rect x="272" y="128" width="16" height="16" fill="#320a0a" shape-rendering="crispEdges" />
<rect x="240" y="144" width="16" height="16" fill="#781414" shape-rendering="crispEdges" />
<rect x="256" y="144" width="16" height="16" fill="#320a0a" shape-rendering="crispEdges" />
<rect x="272" y="144" width="16" height="16" fill="#320a0a" shape-rendering="crispEdges" />
<rect x="272" y="160" width="16" height="16" fill="#320a0a" shape-rendering="crispEdges" />
<rect x="240" y="176" width="16" height="16" fill="#781414" shape-rendering="crispEdges" />
<rect x="256" y="176" width="16" height="16" fill="#320a0a" shape-rendering="crispEdges" />
<rect x="288" y="176" width="16" height="16" fill="#320a0a" shape-rendering="crispEdges" />
<rect x="224" y="192" width="16" height="16" fill="#781414" shape-rendering="crispEdges" />
<rect x="240" y="192" width="16" height="16" fill="#781414" shape-rendering="crispEdges" />
<rect x="256" y="192" width="16" height="16" fill="#320a0a" shape-rendering="crispEdges" />
<rect x="240" y="208" width="16" height="16" fill="#781414" shape-rendering="crispEdges" />
<rect x="256" y="208" width="16" height="16" fill="#320a0a" shape-rendering="crispEdges" />
<rect x="272" y="208" width="16" height="16" fill="#320a0a" shape-rendering="crispEdges" />
<rect x="288" y="208" width="16" height="16" fill="#320a0a" shape-rendering="crispEdges" />
<rect x="224" y="224" width="16" height="16" fill="#781414" shape-rendering="crispEdges" />
<rect x="240" y="224" width="16" height="16" fill="#781414" shape-rendering="crispEdges" />
<rect x="256" y="224" width="16" height="16" fill="#320a0a" shape-rendering="crispEdges" />
<rect x="288" y="224" width="16" height="16" fill="#320a0a" shape-rendering="crispEdges" />
<rect x="208" y="240" width="16" height="16" fill="#781414" shape-rendering="crispEdges" />
<rect x="240" y="240" width="16" height="16" fill="#781414" shape-rendering="crispEdges" />
<rect x="256" y="240" width="16" height="16" fill="#320a0a" shape-rendering="crispEdges" />
<rect x="272" y="240" width="16" height="16" fill="#320a0a" shape-rendering="crispEdges" />
<rect x="288" y="240" width="16" height="16" fill="#320a0a" shape-rendering="crispEdges" />
<rect x="304" y="240" width="16" height="16" fill="#320a0a" shape-rendering="crispEdges" />
<rect x="208" y="256" width="16" height="16" fill="#781414" shape-rendering="crispEdges" />
<rect x="224" y="256" width="16" height="16" fill="#781414" shape-rendering="crispEdges" />
<rect x="240" y="256" width="16" height="16" fill="#781414" shape-rendering="crispEdges" />
<rect x="256" y="256" width="16" height="16" fill="#320a0a" shape-rendering="crispEdges" />
<rect x="272" y="256" width="16" height="16" fill="#320a0a" shape-rendering="crispEdges" />
<rect x="288" y="256" width="16" height="16" fill="#320a0a" shape-rendering="crispEdges" />
<rect x="304" y="256" width="16" height="16" fill="#320a0a" shape-rendering="crispEdges" />
<rect x="208" y="272" width="16" height="16" fill="#781414" shape-rendering="crispEdges" />
<rect x="224" y="272" width="16" height="16" fill="#781414" shape-rendering="crispEdges" />
<rect x="240" y="272" width="16" height="16" fill="#781414" shape-rendering="crispEdges" />
<rect x="256" y="272" width="16" height="16" fill="#320a0a" shape-rendering="crispEdges" />
<rect x="272" y="272" width="16" height="16" fill="#320a0a" shape-rendering="crispEdges" />
<rect x="288" y="272" width="16" height="16" fill="#320a0a" shape-rendering="crispEdges" />
<rect x="304" y="272" width="16" height="16" fill="#320a0a" shape-rendering="crispEdges" />
<rect x="208" y="288" width="16" height="16" fill="#781414" shape-rendering="crispEdges" />
<rect x="224" y="288" width="16" height="16" fill="#781414" shape-rendering="crispEdges" />
<rect x="240" y="288" width="16" height="16" fill="#781414" shape-rendering="crispEdges" />
<rect x="256" y="288" width="16" height="16" fill="#320a0a" shape-rendering="crispEdges" />
<rect x="272" y="288" width="16" height="16" fill="#320a0a" shape-rendering="crispEdges" />
<rect x="288" y="288" width="16" height="16" fill="#320a0a" shape-rendering="crispEdges" />
<rect x="304" y="288" width="16" height="16" fill="#320a0a" shape-rendering="crispEdges" />
<rect x="208" y="304" width="16" height="16" fill="#781414" shape-rendering="crispEdges" />
<rect x="224" y="304" width="16" height="16" fill="#781414" shape-rendering="crispEdges" />
<rect x="240" y="304" width="16" height="16" fill="#781414" shape-rendering="crispEdges" />
<rect x="256" y="304" width="16" height="16" fill="#320a0a" shape-rendering="crispEdges" />
<rect x="272" y="304" width="16" height="16" fill="#320a0a" shape-rendering="crispEdges" />
<rect x="288" y="304" width="16" height="16" fill="#320a0a" shape-rendering="crispEdges" />
<rect x="304" y="304" width="16" height="16" fill="#320a0a" shape-rendering="crispEdges" />
<rect x="192" y="320" width="16" height="16" fill="#781414" shape-rendering="crispEdges" />
<rect x="208" y="320" width="16" height="16" fill="#781414" shape-rendering="crispEdges" />
<rect x="224" y="320" width="16" height="16" fill="#781414" shape-rendering="crispEdges" />
<rect x="240" y="320" width="16" height="16" fill="#781414" shape-rendering="crispEdges" />
<rect x="256" y="320" width="16" height="16" fill="#320a0a" shape-rendering="crispEdges" />
<rect x="272" y="320" width="16" height="16" fill="#320a0a" shape-rendering="crispEdges" />
<rect x="288" y="320" width="16" height="16" fill="#320a0a" shape-rendering="crispEdges" />
<rect x="304" y="320" width="16" height="16" fill="#320a0a" shape-rendering="crispEdges" />
<rect x="192" y="336" width="16" height="16" fill="#781414" shape-rendering="crispEdges" />
<rect x="208" y="336" width="16" height="16" fill="#781414" shape-rendering="crispEdges" />
<rect x="224" y="336" width="16" height="16" fill="#781414" shape-rendering="crispEdges" />
<rect x="240" y="336" width="16" height="16" fill="#781414" shape-rendering="crispEdges" />
<rect x="272" y="336" width="16" height="16" fill="#320a0a" shape-rendering="crispEdges" />
<rect x="288" y="336" width="16" height="16" fill="#320a0a" shape-rendering="crispEdges" />
<rect x="304" y="336" width="16" height="16" fill="#320a0a" shape-rendering="crispEdges" />
<rect x="320" y="336" width="16" height="16" fill="#320a0a" shape-rendering="crispEdges" />
<rect x="208" y="352" width="16" height="16" fill="#781414" shape-rendering="crispEdges" />
<rect x="224" y="352" width="16" height="16" fill="#781414" shape-rendering="crispEdges" />
<rect x="240" y="352" width="16" height="16" fill="#781414" shape-rendering="crispEdges" />
<rect x="256" y="352" width="16" height="16" fill="#320a0a" shape-rendering="crispEdges" />
<rect x="272" y="352" width="16" height="16" fill="#320a0a" shape-rendering="crispEdges" />
<rect x="288" y="352" width="16" height="16" fill="#320a0a" shape-rendering="crispEdges" />
<rect x="304" y="352" width="16" height="16" fill="#320a0a" shape-rendering="crispEdges" />
<rect x="320" y="352" width="16" height="16" fill="#320a0a" shape-rendering="crispEdges" />
<rect x="192" y="368" width="16" height="16" fill="#781414" shape-rendering="crispEdges" />
<rect x="208" y="368" width="16" height="16" fill="#781414" shape-rendering="crispEdges" />
<rect x="224" y="368" width="16" height="16" fill="#781414" shape-rendering="crispEdges" />
<rect x="240" y="368" width="16" height="16" fill="#781414" shape-rendering="crispEdges" />
<rect x="256" y="368" width="16" height="16" fill="#320a0a" shape-rendering="crispEdges" />
<rect x="272" y="368" width="16" height="16" fill="#320a0a" shape-rendering="crispEdges" />
<rect x="288" y="368" width="16" height="16" fill="#320a0a" shape-rendering="crispEdges" />
<rect x="304" y="368" width="16" height="16" fill="#320a0a" shape-rendering="crispEdges" />
<rect x="320" y="368" width="16" height="16" fill="#320a0a" shape-rendering="crispEdges" />
<rect x="176" y="384" width="16" height="16" fill="#781414" shape-rendering="crispEdges" />
<rect x="192" y="384" width="16" height="16" fill="#781414" shape-rendering="crispEdges" />
<rect x="208" y="384" width="16" height="16" fill="#781414" shape-rendering="crispEdges" />
<rect x="224" y="384" width="16" height="16" fill="#781414" shape-rendering="crispEdges" />
<rect x="240" y="384" width="16" height="16" fill="#781414" shape-rendering="crispEdges" />
<rect x="256" y="384" width="16" height="16" fill="#320a0a" shape-rendering="crispEdges" />
<rect x="272" y="384" width="16" height="16" fill="#320a0a" shape-rendering="crispEdges" />
<rect x="288" y="384" width="16" height="16" fill="#320a0a" shape-rendering="crispEdges" />
<rect x="304" y="384" width="16" height="16" fill="#320a0a" shape-rendering="crispEdges" />
<rect x="320" y="384" width="16" height="16" fill="#320a0a" shape-rendering="crispEdges" />
<rect x="336" y="384" width="16" height="16" fill="#320a0a" shape-rendering="crispEdges" />
<rect x="176" y="400" width="16" height="16" fill="#781414" shape-rendering="crispEdges" />
<rect x="192" y="400" width="16" height="16" fill="#781414" shape-rendering="crispEdges" />
<rect x="224" y="400" width="16" height="16" fill="#781414" shape-rendering="crispEdges" />
<rect x="240" y="400" width="16" height="16" fill="#781414" shape-rendering="crispEdges" />
<rect x="256" y="400" width="16" height="16" fill="#320a0a" shape-rendering="crispEdges" />
<rect x="272" y="400" width="16" height="16" fill="#320a0a" shape-rendering="crispEdges" />
<rect x="288" y="400" width="16" height="16" fill="#320a0a" shape-rendering="crispEdges" />
<rect x="304" y="400" width="16" height="16" fill="#320a0a" shape-rendering="crispEdges" />
<rect x="320" y="400" width="16" height="16" fill="#320a0a" shape-rendering="crispEdges" />
<rect x="336" y="400" width="16" height="16" fill="#320a0a" shape-rendering="crispEdges" />
<rect x="176" y="416" width="16" height="16" fill="#781414" shape-rendering="crispEdges" />
<rect x="192" y="416" width="16" height="16" fill="#781414" shape-rendering="crispEdges" />
<rect x="208" y="416" width="16" height="16" fill="#781414" shape-rendering="crispEdges" />
<rect x="224" y="416" width="16" height="16" fill="#781414" shape-rendering="crispEdges" />
<rect x="240" y="416" width="16" height="16" fill="#781414" shape-rendering="crispEdges" />
<rect x="272" y="416" width="16" height="16" fill="#320a0a" shape-rendering="crispEdges" />
<rect x="288" y="416" width="16" height="16" fill="#320a0a" shape-rendering="crispEdges" />
<rect x="304" y="416" width="16" height="16" fill="#320a0a" shape-rendering="crispEdges" />
<rect x="320" y="416" width="16" height="16" fill="#320a0a" shape-rendering="crispEdges" />
<rect x="336" y="416" width="16" height="16" fill="#320a0a" shape-rendering="crispEdges" />
<rect x="176" y="432" width="16" height="16" fill="#781414" shape-rendering="crispEdges" />
<rect x="192" y="432" width="16" height="16" fill="#781414" shape-rendering="crispEdges" />
<rect x="208" y="432" width="16" height="16" fill="#781414" shape-rendering="crispEdges" />
<rect x="224" y="432" width="16" height="16" fill="#781414" shape-rendering="crispEdges" />
<rect x="240" y="432" width="16" height="16" fill="#781414" shape-rendering="crispEdges" />
<rect x="256" y="432" width="16" height="16" fill="#320a0a" shape-rendering="crispEdges" />
<rect x="272" y="432" width="16" height="16" fill="#320a0a" shape-rendering="crispEdges" />
<rect x="288" y="432" width="16" height="16" fill="#320a0a" shape-rendering="crispEdges" />
<rect x="320" y="432" width="16" height="16" fill="#320a0a" shape-rendering="crispEdges" />
<rect x="336" y="432" width="16" height="16" fill="#320a0a" shape-rendering="crispEdges" />
<rect x="160" y="448" width="16" height="16" fill="#781414" shape-rendering="crispEdges" />
<rect x="176" y="448" width="16" height="16" fill="#781414" shape-rendering="crispEdges" />
<rect x="192" y="448" width="16" height="16" fill="#781414" shape-rendering="crispEdges" />
<rect x="208" y="448" width="16" height="16" fill="#781414" shape-rendering="crispEdges" />
<rect x="224" y="448" width="16" height="16" fill="#781414" shape-rendering="crispEdges" />
<rect x="240" y="448" width="16" height="16" fill="#781414" shape-rendering="crispEdges" />
<rect x="256" y="448" width="16" height="16" fill="#320a0a" shape-rendering="crispEdges" />
<rect x="272" y="448" width="16" height="16" fill="#320a0a" shape-rendering="crispEdges" />
<rect x="288" y="448" width="16" height="16" fill="#320a0a" shape-rendering="crispEdges" />
<rect x="304" y="448" width="16" height="16" fill="#320a0a" shape-rendering="crispEdges" />
<rect x="320" y="448" width="16" height="16" fill="#320a0a" shape-rendering="crispEdges" />
<rect x="336" y="448" width="16" height="16" fill="#320a0a" shape-rendering="crispEdges" />
<rect x="352" y="448" width="16" height="16" fill="#320a0a" shape-rendering="crispEdges" />
<rect x="96" y="256" width="16" height="16" fill="#c8c8be" shape-rendering="crispEdges" />
<rect x="112" y="288" width="16" height="16" fill="#781414" shape-rendering="crispEdges" />
<rect x="112" y="304" width="16" height="16" fill="#781414" shape-rendering="crispEdges" />
<rect x="128" y="304" width="16" height="16" fill="#781414" shape-rendering="crispEdges" />
<rect x="128" y="320" width="16" height="16" fill="#781414" shape-rendering="crispEdges" />
<rect x="112" y="336" width="16" height="16" fill="#781414" shape-rendering="crispEdges" />
<rect x="128" y="336" width="16" height="16" fill="#781414" shape-rendering="crispEdges" />
<rect x="144" y="336" width="16" height="16" fill="#781414" shape-rendering="crispEdges" />
<rect x="128" y="352" width="16" height="16" fill="#781414" shape-rendering="crispEdges" />
<rect x="144" y="352" width="16" height="16" fill="#781414" shape-rendering="crispEdges" />
<rect x="160" y="352" width="16" height="16" fill="#781414" shape-rendering="crispEdges" />
<rect x="128" y="368" width="16" height="16" fill="#781414" shape-rendering="crispEdges" />
<rect x="144" y="368" width="16" height="16" fill="#781414" shape-rendering="crispEdges" />
<rect x="160" y="368" width="16" height="16" fill="#781414" shape-rendering="crispEdges" />
<rect x="128" y="384" width="16" height="16" fill="#781414" shape-rendering="crispEdges" />
<rect x="144" y="384" width="16" height="16" fill="#781414" shape-rendering="crispEdges" />
<rect x="160" y="384" width="16" height="16" fill="#781414" shape-rendering="crispEdges" />
<rect x="128" y="400" width="16" height="16" fill="#781414" shape-rendering="crispEdges" />
<rect x="144" y="400" width="16" height="16" fill="#781414" shape-rendering="crispEdges" />
<rect x="160" y="400" width="16" height="16" fill="#781414" shape-rendering="crispEdges" />
<rect x="128" y="416" width="16" height="16" fill="#781414" shape-rendering="crispEdges" />
<rect x="144" y="416" width="16" height="16" fill="#781414" shape-rendering="crispEdges" />
<rect x="160" y="416" width="16" height="16" fill="#781414" shape-rendering="crispEdges" />
<rect x="128" y="432" width="16" height="16" fill="#781414" shape-rendering="crispEdges" />
<rect x="144" y="432" width="16" height="16" fill="#781414" shape-rendering="crispEdges" />
<rect x="160" y="432" width="16" height="16" fill="#781414" shape-rendering="crispEdges" />
<rect x="128" y="448" width="16" height="16" fill="#781414" shape-rendering="crispEdges" />
<rect x="144" y="448" width="16" height="16" fill="#781414" shape-rendering="crispEdges" />
<rect x="416" y="288" width="16" height="16" fill="#320a0a" shape-rendering="crispEdges" />
<rect x="400" y="320" width="16" height="16" fill="#320a0a" shape-rendering="crispEdges" />
<rect x="384" y="336" width="16" height="16" fill="#320a0a" shape-rendering="crispEdges" />
<rect x="368" y="352" width="16" height="16" fill="#320a0a" shape-rendering="crispEdges" />
<rect x="384" y="352" width="16" height="16" fill="#320a0a" shape-rendering="crispEdges" />
<rect x="400" y="352" width="16" height="16" fill="#320a0a" shape-rendering="crispEdges" />
<rect x="352" y="368" width="16" height="16" fill="#320a0a" shape-rendering="crispEdges" />
<rect x="368" y="368" width="16" height="16" fill="#320a0a" shape-rendering="crispEdges" />
<rect x="384" y="368" width="16" height="16" fill="#320a0a" shape-rendering="crispEdges" />
<rect x="400" y="368" width="16" height="16" fill="#320a0a" shape-rendering="crispEdges" />
<rect x="352" y="384" width="16" height="16" fill="#320a0a" shape-rendering="crispEdges" />
<rect x="368" y="384" width="16" height="16" fill="#320a0a" shape-rendering="crispEdges" />
<rect x="384" y="384" width="16" height="16" fill="#320a0a" shape-rendering="crispEdges" />
<rect x="352" y="400" width="16" height="16" fill="#320a0a" shape-rendering="crispEdges" />
<rect x="368" y="400" width="16" height="16" fill="#320a0a" shape-rendering="crispEdges" />
<rect x="384" y="400" width="16" height="16" fill="#320a0a" shape-rendering="crispEdges" />
<rect x="352" y="416" width="16" height="16" fill="#320a0a" shape-rendering="crispEdges" />
<rect x="384" y="416" width="16" height="16" fill="#320a0a" shape-rendering="crispEdges" />
<rect x="368" y="432" width="16" height="16" fill="#320a0a" shape-rendering="crispEdges" />
<rect x="384" y="432" width="16" height="16" fill="#320a0a" shape-rendering="crispEdges" />
<rect x="368" y="448" width="16" height="16" fill="#320a0a" shape-rendering="crispEdges" />
<rect x="384" y="448" width="16" height="16" fill="#320a0a" shape-rendering="crispEdges" />
<rect x="240" y="64" width="16" height="16" fill="#c8c8be" shape-rendering="crispEdges" />
<rect x="240" y="80" width="16" height="16" fill="#c8c8be" shape-rendering="crispEdges" />
<rect x="224" y="128" width="16" height="16" fill="#c8c8be" shape-rendering="crispEdges" />
<rect x="192" y="224" width="16" height="16" fill="#c8c8be" shape-rendering="crispEdges" />
<rect x="176" y="272" width="16" height="16" fill="#c8c8be" shape-rendering="crispEdges" />
<rect x="96" y="288" width="16" height="16" fill="#050505" shape-rendering="crispEdges" />
<rect x="112" y="272" width="16" height="16" fill="#050505" shape-rendering="crispEdges" />
<rect x="256" y="464" width="16" height="16" fill="#050505" shape-rendering="crispEdges" />
<rect x="112" y="416" width="16" height="16" fill="#050505" shape-rendering="crispEdges" />
<rect x="272" y="48" width="16" height="16" fill="#050505" shape-rendering="crispEdges" />
<rect x="320" y="320" width="16" height="16" fill="#050505" shape-rendering="crispEdges" />
<rect x="224" y="208" width="16" height="16" fill="#050505" shape-rendering="crispEdges" />
<rect x="272" y="192" width="16" height="16" fill="#050505" shape-rendering="crispEdges" />
<rect x="320" y="464" width="16" height="16" fill="#050505" shape-rendering="crispEdges" />
<rect x="128" y="288" width="16" height="16" fill="#050505" shape-rendering="crispEdges" />
<rect x="176" y="224" width="16" height="16" fill="#050505" shape-rendering="crispEdges" />
<rect x="176" y="368" width="16" height="16" fill="#050505" shape-rendering="crispEdges" />
<rect x="208" y="128" width="16" height="16" fill="#050505" shape-rendering="crispEdges" />
<rect x="288" y="160" width="16" height="16" fill="#050505" shape-rendering="crispEdges" />
<rect x="416" y="368" width="16" height="16" fill="#050505" shape-rendering="crispEdges" />
<rect x="400" y="400" width="16" height="16" fill="#050505" shape-rendering="crispEdges" />
<rect x="112" y="448" width="16" height="16" fill="#050505" shape-rendering="crispEdges" />
<rect x="272" y="80" width="16" height="16" fill="#050505" shape-rendering="crispEdges" />
<rect x="192" y="288" width="16" height="16" fill="#050505" shape-rendering="crispEdges" />
<rect x="224" y="240" width="16" height="16" fill="#050505" shape-rendering="crispEdges" />
<rect x="272" y="224" width="16" height="16" fill="#050505" shape-rendering="crispEdges" />
<rect x="304" y="176" width="16" height="16" fill="#050505" shape-rendering="crispEdges" />
<rect x="144" y="304" width="16" height="16" fill="#050505" shape-rendering="crispEdges" />
<rect x="176" y="256" width="16" height="16" fill="#050505" shape-rendering="crispEdges" />
<rect x="400" y="288" width="16" height="16" fill="#050505" shape-rendering="crispEdges" />
<rect x="288" y="192" width="16" height="16" fill="#050505" shape-rendering="crispEdges" />
<rect x="160" y="464" width="16" height="16" fill="#050505" shape-rendering="crispEdges" />
<rect x="400" y="432" width="16" height="16" fill="#050505" shape-rendering="crispEdges" />
<rect x="320" y="240" width="16" height="16" fill="#050505" shape-rendering="crispEdges" />
<rect x="192" y="464" width="16" height="16" fill="#050505" shape-rendering="crispEdges" />
<rect x="368" y="464" width="16" height="16" fill="#050505" shape-rendering="crispEdges" />
<rect x="208" y="192" width="16" height="16" fill="#050505" shape-rendering="crispEdges" />
<rect x="256" y="416" width="16" height="16" fill="#050505" shape-rendering="crispEdges" />
<rect x="112" y="368" width="16" height="16" fill="#050505" shape-rendering="crispEdges" />
<rect x="320" y="272" width="16" height="16" fill="#050505" shape-rendering="crispEdges" />
<rect x="192" y="208" width="16" height="16" fill="#050505" shape-rendering="crispEdges" />
<rect x="192" y="352" width="16" height="16" fill="#050505" shape-rendering="crispEdges" />
<rect x="80" y="256" width="16" height="16" fill="#050505" shape-rendering="crispEdges" />
<rect x="240" y="32" width="16" height="16" fill="#050505" shape-rendering="crispEdges" />
<rect x="256" y="16" width="16" height="16" fill="#050505" shape-rendering="crispEdges" />
<rect x="208" y="224" width="16" height="16" fill="#050505" shape-rendering="crispEdges" />
<rect x="256" y="160" width="16" height="16" fill="#050505" shape-rendering="crispEdges" />
<rect x="288" y="112" width="16" height="16" fill="#050505" shape-rendering="crispEdges" />
<rect x="304" y="432" width="16" height="16" fill="#050505" shape-rendering="crispEdges" />
<rect x="416" y="320" width="16" height="16" fill="#050505" shape-rendering="crispEdges" />
<rect x="112" y="256" width="16" height="16" fill="#050505" shape-rendering="crispEdges" />
<rect x="272" y="32" width="16" height="16" fill="#050505" shape-rendering="crispEdges" />
<rect x="320" y="304" width="16" height="16" fill="#050505" shape-rendering="crispEdges" />
<rect x="192" y="240" width="16" height="16" fill="#050505" shape-rendering="crispEdges" />
<rect x="272" y="176" width="16" height="16" fill="#050505" shape-rendering="crispEdges" />
<rect x="160" y="272" width="16" height="16" fill="#050505" shape-rendering="crispEdges" />
<rect x="304" y="464" width="16" height="16" fill="#050505" shape-rendering="crispEdges" />
<rect x="288" y="144" width="16" height="16" fill="#050505" shape-rendering="crispEdges" />
<rect x="128" y="464" width="16" height="16" fill="#050505" shape-rendering="crispEdges" />
<rect x="400" y="384" width="16" height="16" fill="#050505" shape-rendering="crispEdges" />
<rect x="256" y="336" width="16" height="16" fill="#050505" shape-rendering="crispEdges" />
<rect x="224" y="80" width="16" height="16" fill="#050505" shape-rendering="crispEdges" />
<rect x="272" y="64" width="16" height="16" fill="#050505" shape-rendering="crispEdges" />
<rect x="192" y="272" width="16" height="16" fill="#050505" shape-rendering="crispEdges" />
<rect x="352" y="432" width="16" height="16" fill="#050505" shape-rendering="crispEdges" />
<rect x="336" y="464" width="16" height="16" fill="#050505" shape-rendering="crispEdges" />
<rect x="368" y="416" width="16" height="16" fill="#050505" shape-rendering="crispEdges" />
<rect x="304" y="208" width="16" height="16" fill="#050505" shape-rendering="crispEdges" />
<rect x="240" y="96" width="16" height="16" fill="#050505" shape-rendering="crispEdges" />
<rect x="176" y="288" width="16" height="16" fill="#050505" shape-rendering="crispEdges" />
<rect x="400" y="416" width="16" height="16" fill="#050505" shape-rendering="crispEdges" />
<rect x="96" y="240" width="16" height="16" fill="#050505" shape-rendering="crispEdges" />
<rect x="224" y="112" width="16" height="16" fill="#050505" shape-rendering="crispEdges" />
<rect x="336" y="352" width="16" height="16" fill="#050505" shape-rendering="crispEdges" />
<rect x="192" y="304" width="16" height="16" fill="#050505" shape-rendering="crispEdges" />
<rect x="160" y="336" width="16" height="16" fill="#050505" shape-rendering="crispEdges" />
<rect x="176" y="320" width="16" height="16" fill="#050505" shape-rendering="crispEdges" />
<rect x="400" y="304" width="16" height="16" fill="#050505" shape-rendering="crispEdges" />
<rect x="176" y="464" width="16" height="16" fill="#050505" shape-rendering="crispEdges" />
<rect x="400" y="448" width="16" height="16" fill="#050505" shape-rendering="crispEdges" />
<rect x="96" y="272" width="16" height="16" fill="#050505" shape-rendering="crispEdges" />
<rect x="320" y="256" width="16" height="16" fill="#050505" shape-rendering="crispEdges" />
<rect x="240" y="464" width="16" height="16" fill="#050505" shape-rendering="crispEdges" />
<rect x="224" y="144" width="16" height="16" fill="#050505" shape-rendering="crispEdges" />
<rect x="112" y="400" width="16" height="16" fill="#050505" shape-rendering="crispEdges" />
<rect x="368" y="336" width="16" height="16" fill="#050505" shape-rendering="crispEdges" />
<rect x="272" y="464" width="16" height="16" fill="#050505" shape-rendering="crispEdges" />
<rect x="176" y="352" width="16" height="16" fill="#050505" shape-rendering="crispEdges" />
<rect x="400" y="336" width="16" height="16" fill="#050505" shape-rendering="crispEdges" />
<rect x="208" y="400" width="16" height="16" fill="#050505" shape-rendering="crispEdges" />
<rect x="416" y="352" width="16" height="16" fill="#050505" shape-rendering="crispEdges" />
<rect x="96" y="304" width="16" height="16" fill="#050505" shape-rendering="crispEdges" />
<rect x="320" y="288" width="16" height="16" fill="#050505" shape-rendering="crispEdges" />
<rect x="224" y="176" width="16" height="16" fill="#050505" shape-rendering="crispEdges" />
<rect x="112" y="432" width="16" height="16" fill="#050505" shape-rendering="crispEdges" />
<rect x="96" y="336" width="16" height="16" fill="#050505" shape-rendering="crispEdges" />
<rect x="224" y="64" width="16" height="16" fill="#050505" shape-rendering="crispEdges" />
<rect x="112" y="320" width="16" height="16" fill="#050505" shape-rendering="crispEdges" />
<rect x="192" y="256" width="16" height="16" fill="#050505" shape-rendering="crispEdges" />
<rect x="288" y="464" width="16" height="16" fill="#050505" shape-rendering="crispEdges" />
<rect x="272" y="96" width="16" height="16" fill="#050505" shape-rendering="crispEdges" />
<rect x="352" y="464" width="16" height="16" fill="#050505" shape-rendering="crispEdges" />
<rect x="144" y="320" width="16" height="16" fill="#050505" shape-rendering="crispEdges" />
<rect x="144" y="464" width="16" height="16" fill="#050505" shape-rendering="crispEdges" />
<rect x="384" y="320" width="16" height="16" fill="#050505" shape-rendering="crispEdges" />
<rect x="416" y="272" width="16" height="16" fill="#050505" shape-rendering="crispEdges" />
<rect x="208" y="464" width="16" height="16" fill="#050505" shape-rendering="crispEdges" />
<rect x="384" y="464" width="16" height="16" fill="#050505" shape-rendering="crispEdges" />
<rect x="112" y="352" width="16" height="16" fill="#050505" shape-rendering="crispEdges" />
<rect x="336" y="336" width="16" height="16" fill="#050505" shape-rendering="crispEdges" />
<rect x="352" y="352" width="16" height="16" fill="#050505" shape-rendering="crispEdges" />
<rect x="432" y="288" width="16" height="16" fill="#050505" shape-rendering="crispEdges" />
<rect x="304" y="224" width="16" height="16" fill="#050505" shape-rendering="crispEdges" />
<rect x="240" y="160" width="16" height="16" fill="#050505" shape-rendering="crispEdges" />
<rect x="416" y="304" width="16" height="16" fill="#050505" shape-rendering="crispEdges" />
<rect x="112" y="384" width="16" height="16" fill="#050505" shape-rendering="crispEdges" />
<rect x="336" y="368" width="16" height="16" fill="#050505" shape-rendering="crispEdges" />
<rect x="224" y="464" width="16" height="16" fill="#050505" shape-rendering="crispEdges" />
<rect x="176" y="336" width="16" height="16" fill="#050505" shape-rendering="crispEdges" />
<rect x="240" y="48" width="16" height="16" fill="#050505" shape-rendering="crispEdges" />
<rect x="288" y="128" width="16" height="16" fill="#050505" shape-rendering="crispEdges" />
</svg>