<svg width="512" height="512" viewBox="0 0 512 512" xmlns="http://www.w3.org/2000/svg">
<rect x="176" y="16" width="16" height="16" fill="#828282" shape-rendering="crispEdges" />
<rect x="304" y="16" width="16" height="16" fill="#828282" shape-rendering="crispEdges" />
<rect x="160" y="32" width="16" height="16" fill="#828282" shape-rendering="crispEdges" />
<rect x="192" y="32" width="16" height="16" fill="#503228" shape-rendering="crispEdges" />
<rect x="288" y="32" width="16" height="16" fill="#503228" shape-rendering="crispEdges" />
<rect x="320" y="32" width="16" height="16" fill="#828282" shape-rendering="crispEdges" />
<rect x="160" y="48" width="16" height="16" fill="#3c281e" shape-rendering="crispEdges" />
<rect x="192" y="48" width="16" height="16" fill="#64646e" shape-rendering="crispEdges" />
<rect x="288" y="48" width="16" height="16" fill="#64646e" shape-rendering="crispEdges" />
<rect x="320" y="48" width="16" height="16" fill="#3c281e" shape-rendering="crispEdges" />
<rect x="160" y="64" width="16" height="16" fill="#3c281e" shape-rendering="crispEdges" />
<rect x="192" y="64" width="16" height="16" fill="#64646e" shape-rendering="crispEdges" />
<rect x="288" y="64" width="16" height="16" fill="#64646e" shape-rendering="crispEdges" />
<rect x="320" y="64" width="16" height="16" fill="#3c281e" shape-rendering="crispEdges" />
<rect x="160" y="80" width="16" height="16" fill="#64646e" shape-rendering="crispEdges" />
<rect x="192" y="80" width="16" height="16" fill="#64646e" shape-rendering="crispEdges" />
<rect x="288" y="80" width="16" height="16" fill="#64646e" shape-rendering="crispEdges" />
<rect x="320" y="80" width="16" height="16" fill="#64646e" shape-rendering="crispEdges" />
<rect x="160" y="96" width="16" height="16" fill="#64646e" shape-rendering="crispEdges" />
<rect x="192" y="96" width="16" height="16" fill="#64646e" shape-rendering="crispEdges" />
<rect x="288" y="96" width="16" height="16" fill="#64646e" shape-rendering="crispEdges" />
<rect x="320" y="96" width="16" height="16" fill="#64646e" shape-rendering="crispEdges" />
<rect x="160" y="112" width="16" height="16" fill="#64646e" shape-rendering="crispEdges" />
<rect x="192" y="112" width="16" height="16" fill="#503228" shape-rendering="crispEdges" />
<rect x="288" y="112" width="16" height="16" fill="#64646e" shape-rendering="crispEdges" />
<rect x="320" y="112" width="16" height="16" fill="#64646e" shape-rendering="crispEdges" />
<rect x="160" y="128" width="16" height="16" fill="#64646e" shape-rendering="crispEdges" />
<rect x="192" y="128" width="16" height="16" fill="#64646e" shape-rendering="crispEdges" />
<rect x="288" y="128" width="16" height="16" fill="#64646e" shape-rendering="crispEdges" />
<rect x="320" y="128" width="16" height="16" fill="#64646e" shape-rendering="crispEdges" />
<rect x="160" y="144" width="16" height="16" fill="#64646e" shape-rendering="crispEdges" />
<rect x="192" y="144" width="16" height="16" fill="#3c281e" shape-rendering="crispEdges" />
<rect x="288" y="144" width="16" height="16" fill="#64646e" shape-rendering="crispEdges" />
<rect x="320" y="144" width="16" height="16" fill="#64646e" shape-rendering="crispEdges" />
<rect x="160" y="160" width="16" height="16" fill="#64646e" shape-rendering="crispEdges" />
<rect x="192" y="160" width="16" height="16" fill="#64646e" shape-rendering="crispEdges" />
<rect x="288" y="160" width="16" height="16" fill="#3c281e" shape-rendering="crispEdges" />
<rect x="320" y="160" width="16" height="16" fill="#64646e" shape-rendering="crispEdges" />
<rect x="160" y="176" width="16" height="16" fill="#64646e" shape-rendering="crispEdges" />
<rect x="192" y="176" width="16" height="16" fill="#64646e" shape-rendering="crispEdges" />
<rect x="288" y="176" width="16" height="16" fill="#3c281e" shape-rendering="crispEdges" />
<rect x="320" y="176" width="16" height="16" fill="#64646e" shape-rendering="crispEdges" />
<rect x="160" y="192" width="16" height="16" fill="#3c281e" shape-rendering="crispEdges" />
<rect x="192" y="192" width="16" height="16" fill="#64646e" shape-rendering="crispEdges" />
<rect x="288" y="192" width="16" height="16" fill="#64646e" shape-rendering="crispEdges" />
<rect x="320" y="192" width="16" height="16" fill="#64646e" shape-rendering="crispEdges" />
<rect x="160" y="208" width="16" height="16" fill="#64646e" shape-rendering="crispEdges" />
<rect x="192" y="208" width="16" height="16" fill="#64646e" shape-rendering="crispEdges" />
<rect x="288" y="208" width="16" height="16" fill="#64646e" shape-rendering="crispEdges" />
<rect x="320" y="208" width="16" height="16" fill="#3c281e" shape-rendering="crispEdges" />
<rect x="160" y="224" width="16" height="16" fill="#3c281e" shape-rendering="crispEdges" />
<rect x="192" y="224" width="16" height="16" fill="#64646e" shape-rendering="crispEdges" />
<rect x="288" y="224" width="16" height="16" fill="#64646e" shape-rendering="crispEdges" />
<rect x="320" y="224" width="16" height="16" fill="#828282" shape-rendering="crispEdges" />
<rect x="176" y="240" width="16" height="16" fill="#828282" shape-rendering="crispEdges" />
<rect x="192" y="240" width="16" height="16" fill="#64646e" shape-rendering="crispEdges" />
<rect x="288" y="240" width="16" height="16" fill="#64646e" shape-rendering="crispEdges" />
<rect x="304" y="240" width="16" height="16" fill="#828282" shape-rendering="crispEdges" />
<rect x="192" y="256" width="16" height="16" fill="#828282" shape-rendering="crispEdges" />
<rect x="208" y="256" width="16" height="16" fill="#503228" shape-rendering="crispEdges" />
<rect x="224" y="256" width="16" height="16" fill="#64646e" shape-rendering="crispEdges" />
<rect x="240" y="256" width="16" height="16" fill="#64646e" shape-rendering="crispEdges" />
<rect x="256" y="256" width="16" height="16" fill="#64646e" shape-rendering="crispEdges" />
<rect x="272" y="256" width="16" height="16" fill="#503228" shape-rendering="crispEdges" />
<rect x="288" y="256" width="16" height="16" fill="#828282" shape-rendering="crispEdges" />
<rect x="208" y="272" width="16" height="16" fill="#828282" shape-rendering="crispEdges" />
<rect x="224" y="272" width="16" height="16" fill="#828282" shape-rendering="crispEdges" />
<rect x="240" y="272" width="16" height="16" fill="#64646e" shape-rendering="crispEdges" />
<rect x="256" y="272" width="16" height="16" fill="#828282" shape-rendering="crispEdges" />
<rect x="272" y="272" width="16" height="16" fill="#828282" shape-rendering="crispEdges" />
<rect x="224" y="288" width="16" height="16" fill="#64646e" shape-rendering="crispEdges" />
<rect x="240" y="288" width="16" height="16" fill="#0f140f" shape-rendering="crispEdges" />
<rect x="256" y="288" width="16" height="16" fill="#64646e" shape-rendering="crispEdges" />
<rect x="224" y="304" width="16" height="16" fill="#785a46" shape-rendering="crispEdges" />
<rect x="240" y="304" width="16" height="16" fill="#0f140f" shape-rendering="crispEdges" />
<rect x="256" y="304" width="16" height="16" fill="#283228" shape-rendering="crispEdges" />
<rect x="224" y="320" width="16" height="16" fill="#283228" shape-rendering="crispEdges" />
<rect x="240" y="320" width="16" height="16" fill="#0f140f" shape-rendering="crispEdges" />
<rect x="256" y="320" width="16" height="16" fill="#283228" shape-rendering="crispEdges" />
<rect x="224" y="336" width="16" height="16" fill="#283228" shape-rendering="crispEdges" />
<rect x="240" y="336" width="16" height="16" fill="#0f140f" shape-rendering="crispEdges" />
<rect x="256" y="336" width="16" height="16" fill="#283228" shape-rendering="crispEdges" />
<rect x="224" y="352" width="16" height="16" fill="#283228" shape-rendering="crispEdges" />
<rect x="240" y="352" width="16" height="16" fill="#0f140f" shape-rendering="crispEdges" />
<rect x="256" y="352" width="16" height="16" fill="#283228" shape-rendering="crispEdges" />
<rect x="224" y="368" width="16" height="16" fill="#283228" shape-rendering="crispEdges" />
<rect x="240" y="368" width="16" height="16" fill="#0f140f" shape-rendering="crispEdges" />
<rect x="256" y="368" width="16" height="16" fill="#283228" shape-rendering="crispEdges" />
<rect x="224" y="384" width="16" height="16" fill="#283228" shape-rendering="crispEdges" />
<rect x="240" y="384" width="16" height="16" fill="#0f140f" shape-rendering="crispEdges" />
<rect x="256" y="384" width="16" height="16" fill="#283228" shape-rendering="crispEdges" />
<rect x="224" y="400" width="16" height="16" fill="#283228" shape-rendering="crispEdges" />
<rect x="240" y="400" width="16" height="16" fill="#0f140f" shape-rendering="crispEdges" />
<rect x="256" y="400" width="16" height="16" fill="#283228" shape-rendering="crispEdges" />
<rect x="224" y="416" width="16" height="16" fill="#283228" shape-rendering="crispEdges" />
<rect x="240" y="416" width="16" height="16" fill="#0f140f" shape-rendering="crispEdges" />
<rect x="256" y="416" width="16" height="16" fill="#283228" shape-rendering="crispEdges" />
<rect x="224" y="432" width="16" height="16" fill="#283228" shape-rendering="crispEdges" />
<rect x="240" y="432" width="16" height="16" fill="#0f140f" shape-rendering="crispEdges" />
<rect x="256" y="432" width="16" height="16" fill="#283228" shape-rendering="crispEdges" />
<rect x="224" y="448" width="16" height="16" fill="#785a46" shape-rendering="crispEdges" />
<rect x="240" y="448" width="16" height="16" fill="#0f140f" shape-rendering="crispEdges" />
<rect x="256" y="448" width="16" height="16" fill="#283228" shape-rendering="crispEdges" />
<rect x="224" y="464" width="16" height="16" fill="#785a46" shape-rendering="crispEdges" />
<rect x="240" y="464" width="16" height="16" fill="#0f140f" shape-rendering="crispEdges" />
<rect x="256" y="464" width="16" height="16" fill="#283228" shape-rendering="crispEdges" />
<rect x="208" y="480" width="16" height="16" fill="#0f140f" shape-rendering="crispEdges" />
<rect x="224" y="480" width="16" height="16" fill="#283228" shape-rendering="crispEdges" />
<rect x="240" y="480" width="16" height="16" fill="#0f140f" shape-rendering="crispEdges" />
<rect x="256" y="480" width="16" height="16" fill="#283228" shape-rendering="crispEdges" />
<rect x="272" y="480" width="16" height="16" fill="#0f140f" shape-rendering="crispEdges" />
<rect x="224" y="496" width="16" height="16" fill="#0f140f" shape-rendering="crispEdges" />
<rect x="240" y="496" width="16" height="16" fill="#0f140f" shape-rendering="crispEdges" />
<rect x="256" y="496" width="16" height="16" fill="#0f140f" shape-rendering="crispEdges" />
</svg>