<svg width="32" height="32" viewBox="0 0 32 32" xmlns="http://www.w3.org/2000/svg" shape-rendering="crispEdges">
    <rect x="16" y="1" width="1" height="1" fill="#050505" /><rect x="11" y="2" width="1" height="1" fill="#050505" /><rect x="13" y="2" width="3" height="1" fill="#050505" /><rect x="16" y="2" width="1" height="1" fill="#8b3a1a" /><rect x="17" y="2" width="5" height="1" fill="#050505" /><rect x="9" y="3" width="2" height="1" fill="#050505" /><rect x="11" y="3" width="1" height="1" fill="#8b3a1a" /><rect x="12" y="3" width="1" height="1" fill="#050505" /><rect x="13" y="3" width="2" height="1" fill="#d4b483" /><rect x="15" y="3" width="1" height="1" fill="#8b3a1a" /><rect x="16" y="3" width="3" height="1" fill="#c7913d" /><rect x="19" y="3" width="1" height="1" fill="#8b3a1a" /><rect x="20" y="3" width="2" height="1" fill="#c7913d" /><rect x="22" y="3" width="2" height="1" fill="#050505" /><rect x="8" y="4" width="1" height="1" fill="#050505" /><rect x="9" y="4" width="4" height="1" fill="#d4b483" /><rect x="13" y="4" width="1" height="1" fill="#8b3a1a" /><rect x="14" y="4" width="2" height="1" fill="#d4b483" /><rect x="16" y="4" width="6" height="1" fill="#c7913d" /><rect x="22" y="4" width="1" height="1" fill="#8b3a1a" /><rect x="23" y="4" width="1" height="1" fill="#c7913d" /><rect x="24" y="4" width="1" height="1" fill="#050505" /><rect x="7" y="5" width="1" height="1" fill="#050505" /><rect x="8" y="5" width="1" height="1" fill="#8b3a1a" /><rect x="9" y="5" width="3" height="1" fill="#d4b483" /><rect x="12" y="5" width="3" height="1" fill="#050505" /><rect x="15" y="5" width="1" height="1" fill="#c7913d" /><rect x="16" y="5" width="2" height="1" fill="#8a6125" /><rect x="18" y="5" width="3" height="1" fill="#050505" /><rect x="21" y="5" width="4" height="1" fill="#c7913d" /><rect x="25" y="5" width="1" height="1" fill="#050505" /><rect x="6" y="6" width="1" height="1" fill="#050505" /><rect x="7" y="6" width="3" height="1" fill="#d4b483" /><rect x="10" y="6" width="2" height="1" fill="#050505" /><rect x="14" y="6" width="1" height="1" fill="#050505" /><rect x="15" y="6" width="1" height="1" fill="#c7913d" /><rect x="16" y="6" width="1" height="1" fill="#8a6125" /><rect x="17" y="6" width="1" height="1" fill="#8b3a1a" /><rect x="18" y="6" width="1" height="1" fill="#050505" /><rect x="21" y="6" width="2" height="1" fill="#050505" /><rect x="23" y="6" width="2" height="1" fill="#c7913d" /><rect x="25" y="6" width="1" height="1" fill="#8b3a1a" /><rect x="26" y="6" width="1" height="1" fill="#050505" /><rect x="5" y="7" width="1" height="1" fill="#050505" /><rect x="6" y="7" width="1" height="1" fill="#4a2c1d" /><rect x="7" y="7" width="1" height="1" fill="#d4b483" /><rect x="8" y="7" width="1" height="1" fill="#4a2c1d" /><rect x="9" y="7" width="1" height="1" fill="#050505" /><rect x="14" y="7" width="1" height="1" fill="#050505" /><rect x="15" y="7" width="1" height="1" fill="#c7913d" /><rect x="16" y="7" width="2" height="1" fill="#8a6125" /><rect x="18" y="7" width="1" height="1" fill="#050505" /><rect x="23" y="7" width="1" height="1" fill="#050505" /><rect x="24" y="7" width="3" height="1" fill="#c7913d" /><rect x="27" y="7" width="1" height="1" fill="#050505" /><rect x="4" y="8" width="1" height="1" fill="#050505" /><rect x="5" y="8" width="3" height="1" fill="#d4b483" /><rect x="8" y="8" width="1" height="1" fill="#050505" /><rect x="14" y="8" width="1" height="1" fill="#050505" /><rect x="15" y="8" width="1" height="1" fill="#8b3a1a" /><rect x="16" y="8" width="2" height="1" fill="#8a6125" /><rect x="18" y="8" width="1" height="1" fill="#050505" /><rect x="24" y="8" width="1" height="1" fill="#050505" /><rect x="25" y="8" width="3" height="1" fill="#c7913d" /><rect x="28" y="8" width="1" height="1" fill="#050505" /><rect x="3" y="9" width="1" height="1" fill="#050505" /><rect x="4" y="9" width="1" height="1" fill="#d4b483" /><rect x="5" y="9" width="1" height="1" fill="#050505" /><rect x="6" y="9" width="1" height="1" fill="#8b3a1a" /><rect x="7" y="9" width="1" height="1" fill="#050505" /><rect x="14" y="9" width="1" height="1" fill="#050505" /><rect x="15" y="9" width="1" height="1" fill="#c7913d" /><rect x="16" y="9" width="1" height="1" fill="#8a6125" /><rect x="17" y="9" width="1" height="1" fill="#8b3a1a" /><rect x="18" y="9" width="1" height="1" fill="#050505" /><rect x="25" y="9" width="1" height="1" fill="#050505" /><rect x="26" y="9" width="1" height="1" fill="#8b3a1a" /><rect x="27" y="9" width="1" height="1" fill="#c7913d" /><rect x="28" y="9" width="1" height="1" fill="#8b3a1a" /><rect x="29" y="9" width="1" height="1" fill="#050505" /><rect x="3" y="10" width="1" height="1" fill="#050505" /><rect x="4" y="10" width="1" height="1" fill="#d4b483" /><rect x="5" y="10" width="1" height="1" fill="#8b3a1a" /><rect x="6" y="10" width="1" height="1" fill="#050505" /><rect x="14" y="10" width="1" height="1" fill="#050505" /><rect x="15" y="10" width="1" height="1" fill="#c7913d" /><rect x="16" y="10" width="1" height="1" fill="#8b3a1a" /><rect x="17" y="10" width="1" height="1" fill="#8a6125" /><rect x="18" y="10" width="1" height="1" fill="#050505" /><rect x="26" y="10" width="1" height="1" fill="#050505" /><rect x="27" y="10" width="2" height="1" fill="#c7913d" /><rect x="29" y="10" width="1" height="1" fill="#050505" /><rect x="2" y="11" width="1" height="1" fill="#050505" /><rect x="3" y="11" width="2" height="1" fill="#d4b483" /><rect x="5" y="11" width="1" height="1" fill="#8b3a1a" /><rect x="6" y="11" width="1" height="1" fill="#050505" /><rect x="14" y="11" width="1" height="1" fill="#050505" /><rect x="15" y="11" width="1" height="1" fill="#8b3a1a" /><rect x="16" y="11" width="1" height="1" fill="#4a2c1d" /><rect x="17" y="11" width="1" height="1" fill="#8b3a1a" /><rect x="18" y="11" width="1" height="1" fill="#050505" /><rect x="26" y="11" width="1" height="1" fill="#050505" /><rect x="27" y="11" width="3" height="1" fill="#c7913d" /><rect x="30" y="11" width="1" height="1" fill="#050505" /><rect x="2" y="12" width="1" height="1" fill="#050505" /><rect x="3" y="12" width="2" height="1" fill="#d4b483" /><rect x="5" y="12" width="1" height="1" fill="#050505" /><rect x="14" y="12" width="1" height="1" fill="#050505" /><rect x="15" y="12" width="1" height="1" fill="#4a2c1d" /><rect x="16" y="12" width="1" height="1" fill="#8b3a1a" /><rect x="17" y="12" width="1" height="1" fill="#4a2c1d" /><rect x="18" y="12" width="1" height="1" fill="#050505" /><rect x="27" y="12" width="1" height="1" fill="#050505" /><rect x="28" y="12" width="1" height="1" fill="#c7913d" /><rect x="29" y="12" width="1" height="1" fill="#8b3a1a" /><rect x="30" y="12" width="1" height="1" fill="#050505" /><rect x="2" y="13" width="1" height="1" fill="#050505" /><rect x="3" y="13" width="2" height="1" fill="#d4b483" /><rect x="5" y="13" width="1" height="1" fill="#050505" /><rect x="13" y="13" width="1" height="1" fill="#050505" /><rect x="14" y="13" width="3" height="1" fill="#4a2c1d" /><rect x="17" y="13" width="2" height="1" fill="#8b3a1a" /><rect x="19" y="13" width="1" height="1" fill="#050505" /><rect x="27" y="13" width="1" height="1" fill="#050505" /><rect x="28" y="13" width="2" height="1" fill="#c7913d" /><rect x="30" y="13" width="1" height="1" fill="#050505" /><rect x="2" y="14" width="1" height="1" fill="#050505" /><rect x="3" y="14" width="2" height="1" fill="#d4b483" /><rect x="5" y="14" width="5" height="1" fill="#050505" /><rect x="11" y="14" width="2" height="1" fill="#050505" /><rect x="13" y="14" width="5" height="1" fill="#4a2c1d" /><rect x="18" y="14" width="2" height="1" fill="#8b3a1a" /><rect x="20" y="14" width="1" height="1" fill="#050505" /><rect x="22" y="14" width="6" height="1" fill="#050505" /><rect x="28" y="14" width="2" height="1" fill="#c7913d" /><rect x="30" y="14" width="1" height="1" fill="#050505" /><rect x="2" y="15" width="2" height="1" fill="#050505" /><rect x="4" y="15" width="1" height="1" fill="#4a2c1d" /><rect x="5" y="15" width="1" height="1" fill="#c7913d" /><rect x="6" y="15" width="2" height="1" fill="#8b3a1a" /><rect x="8" y="15" width="2" height="1" fill="#c7913d" /><rect x="10" y="15" width="1" height="1" fill="#050505" /><rect x="11" y="15" width="1" height="1" fill="#8b3a1a" /><rect x="12" y="15" width="5" height="1" fill="#4a2c1d" /><rect x="17" y="15" width="1" height="1" fill="#050505" /><rect x="18" y="15" width="3" height="1" fill="#4a2c1d" /><rect x="21" y="15" width="1" height="1" fill="#050505" /><rect x="22" y="15" width="2" height="1" fill="#8b3a1a" /><rect x="24" y="15" width="2" height="1" fill="#c7913d" /><rect x="26" y="15" width="1" height="1" fill="#8b3a1a" /><rect x="27" y="15" width="3" height="1" fill="#c7913d" /><rect x="30" y="15" width="1" height="1" fill="#050505" /><rect x="1" y="16" width="1" height="1" fill="#050505" /><rect x="2" y="16" width="1" height="1" fill="#c7913d" /><rect x="3" y="16" width="1" height="1" fill="#8b3a1a" /><rect x="4" y="16" width="1" height="1" fill="#c7913d" /><rect x="5" y="16" width="1" height="1" fill="#8a6125" /><rect x="6" y="16" width="1" height="1" fill="#050505" /><rect x="7" y="16" width="4" height="1" fill="#8a6125" /><rect x="11" y="16" width="1" height="1" fill="#4a2c1d" /><rect x="12" y="16" width="2" height="1" fill="#8b3a1a" /><rect x="14" y="16" width="1" height="1" fill="#050505" /><rect x="15" y="16" width="1" height="1" fill="#4a2c1d" /><rect x="16" y="16" width="1" height="1" fill="#8b3a1a" /><rect x="17" y="16" width="4" height="1" fill="#4a2c1d" /><rect x="21" y="16" width="1" height="1" fill="#8b3a1a" /><rect x="22" y="16" width="6" height="1" fill="#8a6125" /><rect x="28" y="16" width="1" height="1" fill="#c7913d" /><rect x="29" y="16" width="1" height="1" fill="#050505" /><rect x="30" y="16" width="1" height="1" fill="#8b3a1a" /><rect x="31" y="16" width="1" height="1" fill="#050505" /><rect x="2" y="17" width="1" height="1" fill="#050505" /><rect x="3" y="17" width="2" height="1" fill="#c7913d" /><rect x="5" y="17" width="3" height="1" fill="#8a6125" /><rect x="8" y="17" width="1" height="1" fill="#050505" /><rect x="9" y="17" width="3" height="1" fill="#8a6125" /><rect x="12" y="17" width="1" height="1" fill="#4a2c1d" /><rect x="13" y="17" width="1" height="1" fill="#8a6125" /><rect x="14" y="17" width="7" height="1" fill="#4a2c1d" /><rect x="21" y="17" width="1" height="1" fill="#8a6125" /><rect x="22" y="17" width="1" height="1" fill="#8b3a1a" /><rect x="23" y="17" width="1" height="1" fill="#8a6125" /><rect x="24" y="17" width="1" height="1" fill="#8b3a1a" /><rect x="25" y="17" width="2" height="1" fill="#8a6125" /><rect x="27" y="17" width="1" height="1" fill="#050505" /><rect x="28" y="17" width="2" height="1" fill="#8a6125" /><rect x="30" y="17" width="1" height="1" fill="#050505" /><rect x="3" y="18" width="1" height="1" fill="#050505" /><rect x="4" y="18" width="1" height="1" fill="#c7913d" /><rect x="5" y="18" width="3" height="1" fill="#050505" /><rect x="9" y="18" width="4" height="1" fill="#050505" /><rect x="13" y="18" width="1" height="1" fill="#4a2c1d" /><rect x="14" y="18" width="1" height="1" fill="#050505" /><rect x="15" y="18" width="1" height="1" fill="#4a2c1d" /><rect x="16" y="18" width="1" height="1" fill="#8b3a1a" /><rect x="17" y="18" width="3" height="1" fill="#4a2c1d" /><rect x="20" y="18" width="8" height="1" fill="#050505" /><rect x="28" y="18" width="2" height="1" fill="#8a6125" /><rect x="30" y="18" width="1" height="1" fill="#050505" /><rect x="2" y="19" width="1" height="1" fill="#050505" /><rect x="3" y="19" width="2" height="1" fill="#c7913d" /><rect x="5" y="19" width="1" height="1" fill="#050505" /><rect x="13" y="19" width="1" height="1" fill="#050505" /><rect x="14" y="19" width="1" height="1" fill="#8b3a1a" /><rect x="15" y="19" width="2" height="1" fill="#4a2c1d" /><rect x="17" y="19" width="1" height="1" fill="#050505" /><rect x="18" y="19" width="1" height="1" fill="#4a2c1d" /><rect x="19" y="19" width="1" height="1" fill="#050505" /><rect x="27" y="19" width="1" height="1" fill="#050505" /><rect x="28" y="19" width="1" height="1" fill="#8a6125" /><rect x="29" y="19" width="1" height="1" fill="#8b3a1a" /><rect x="30" y="19" width="1" height="1" fill="#050505" /><rect x="2" y="20" width="1" height="1" fill="#050505" /><rect x="3" y="20" width="1" height="1" fill="#c7913d" /><rect x="4" y="20" width="1" height="1" fill="#8b3a1a" /><rect x="5" y="20" width="1" height="1" fill="#050505" /><rect x="14" y="20" width="1" height="1" fill="#050505" /><rect x="15" y="20" width="1" height="1" fill="#8b3a1a" /><rect x="16" y="20" width="2" height="1" fill="#4a2c1d" /><rect x="18" y="20" width="1" height="1" fill="#050505" /><rect x="27" y="20" width="1" height="1" fill="#050505" /><rect x="28" y="20" width="1" height="1" fill="#4a2c1d" /><rect x="29" y="20" width="1" height="1" fill="#8a6125" /><rect x="30" y="20" width="1" height="1" fill="#050505" /><rect x="3" y="21" width="1" height="1" fill="#050505" /><rect x="4" y="21" width="2" height="1" fill="#c7913d" /><rect x="6" y="21" width="1" height="1" fill="#050505" /><rect x="14" y="21" width="1" height="1" fill="#050505" /><rect x="15" y="21" width="1" height="1" fill="#c7913d" /><rect x="16" y="21" width="1" height="1" fill="#4a2c1d" /><rect x="17" y="21" width="1" height="1" fill="#8a6125" /><rect x="18" y="21" width="1" height="1" fill="#050505" /><rect x="26" y="21" width="1" height="1" fill="#050505" /><rect x="27" y="21" width="3" height="1" fill="#8a6125" /><rect x="30" y="21" width="1" height="1" fill="#050505" /><rect x="3" y="22" width="1" height="1" fill="#050505" /><rect x="4" y="22" width="1" height="1" fill="#4a2c1d" /><rect x="5" y="22" width="1" height="1" fill="#c7913d" /><rect x="6" y="22" width="1" height="1" fill="#050505" /><rect x="14" y="22" width="1" height="1" fill="#050505" /><rect x="15" y="22" width="1" height="1" fill="#c7913d" /><rect x="16" y="22" width="2" height="1" fill="#8a6125" /><rect x="18" y="22" width="1" height="1" fill="#050505" /><rect x="26" y="22" width="1" height="1" fill="#050505" /><rect x="27" y="22" width="2" height="1" fill="#8a6125" /><rect x="29" y="22" width="1" height="1" fill="#050505" /><rect x="3" y="23" width="1" height="1" fill="#050505" /><rect x="4" y="23" width="1" height="1" fill="#c7913d" /><rect x="5" y="23" width="1" height="1" fill="#8b3a1a" /><rect x="6" y="23" width="1" height="1" fill="#c7913d" /><rect x="7" y="23" width="1" height="1" fill="#050505" /><rect x="14" y="23" width="1" height="1" fill="#050505" /><rect x="15" y="23" width="1" height="1" fill="#c7913d" /><rect x="16" y="23" width="1" height="1" fill="#8a6125" /><rect x="17" y="23" width="1" height="1" fill="#8b3a1a" /><rect x="18" y="23" width="1" height="1" fill="#050505" /><rect x="25" y="23" width="1" height="1" fill="#050505" /><rect x="26" y="23" width="1" height="1" fill="#8a6125" /><rect x="27" y="23" width="1" height="1" fill="#8b3a1a" /><rect x="28" y="23" width="1" height="1" fill="#8a6125" /><rect x="29" y="23" width="1" height="1" fill="#050505" /><rect x="4" y="24" width="1" height="1" fill="#050505" /><rect x="5" y="24" width="3" height="1" fill="#c7913d" /><rect x="8" y="24" width="1" height="1" fill="#050505" /><rect x="14" y="24" width="1" height="1" fill="#050505" /><rect x="15" y="24" width="1" height="1" fill="#8b3a1a" /><rect x="16" y="24" width="1" height="1" fill="#8a6125" /><rect x="17" y="24" width="1" height="1" fill="#8b3a1a" /><rect x="18" y="24" width="1" height="1" fill="#050505" /><rect x="24" y="24" width="2" height="1" fill="#050505" /><rect x="26" y="24" width="1" height="1" fill="#8a6125" /><rect x="27" y="24" width="1" height="1" fill="#8b3a1a" /><rect x="28" y="24" width="1" height="1" fill="#050505" /><rect x="5" y="25" width="1" height="1" fill="#050505" /><rect x="6" y="25" width="2" height="1" fill="#c7913d" /><rect x="8" y="25" width="1" height="1" fill="#8b3a1a" /><rect x="9" y="25" width="1" height="1" fill="#050505" /><rect x="14" y="25" width="1" height="1" fill="#050505" /><rect x="15" y="25" width="1" height="1" fill="#c7913d" /><rect x="16" y="25" width="2" height="1" fill="#8a6125" /><rect x="18" y="25" width="1" height="1" fill="#050505" /><rect x="23" y="25" width="1" height="1" fill="#050505" /><rect x="24" y="25" width="3" height="1" fill="#8a6125" /><rect x="27" y="25" width="1" height="1" fill="#050505" /><rect x="6" y="26" width="1" height="1" fill="#050505" /><rect x="7" y="26" width="3" height="1" fill="#c7913d" /><rect x="10" y="26" width="2" height="1" fill="#050505" /><rect x="15" y="26" width="1" height="1" fill="#050505" /><rect x="16" y="26" width="2" height="1" fill="#8a6125" /><rect x="18" y="26" width="1" height="1" fill="#050505" /><rect x="21" y="26" width="2" height="1" fill="#050505" /><rect x="23" y="26" width="1" height="1" fill="#8a6125" /><rect x="24" y="26" width="2" height="1" fill="#8b3a1a" /><rect x="26" y="26" width="1" height="1" fill="#050505" /><rect x="7" y="27" width="2" height="1" fill="#050505" /><rect x="9" y="27" width="2" height="1" fill="#c7913d" /><rect x="11" y="27" width="1" height="1" fill="#8b3a1a" /><rect x="12" y="27" width="3" height="1" fill="#050505" /><rect x="15" y="27" width="1" height="1" fill="#c7913d" /><rect x="16" y="27" width="2" height="1" fill="#8a6125" /><rect x="18" y="27" width="3" height="1" fill="#050505" /><rect x="21" y="27" width="1" height="1" fill="#4a2c1d" /><rect x="22" y="27" width="1" height="1" fill="#8b3a1a" /><rect x="23" y="27" width="1" height="1" fill="#050505" /><rect x="24" y="27" width="1" height="1" fill="#8a6125" /><rect x="25" y="27" width="1" height="1" fill="#050505" /><rect x="8" y="28" width="1" height="1" fill="#050505" /><rect x="9" y="28" width="3" height="1" fill="#c7913d" /><rect x="12" y="28" width="2" height="1" fill="#8b3a1a" /><rect x="14" y="28" width="1" height="1" fill="#050505" /><rect x="15" y="28" width="1" height="1" fill="#8b3a1a" /><rect x="16" y="28" width="1" height="1" fill="#c7913d" /><rect x="17" y="28" width="1" height="1" fill="#8b3a1a" /><rect x="18" y="28" width="2" height="1" fill="#8a6125" /><rect x="20" y="28" width="1" height="1" fill="#8b3a1a" /><rect x="21" y="28" width="1" height="1" fill="#8a6125" /><rect x="22" y="28" width="1" height="1" fill="#8b3a1a" /><rect x="23" y="28" width="1" height="1" fill="#8a6125" /><rect x="24" y="28" width="1" height="1" fill="#050505" /><rect x="9" y="29" width="2" height="1" fill="#050505" /><rect x="11" y="29" width="2" height="1" fill="#c7913d" /><rect x="13" y="29" width="2" height="1" fill="#8b3a1a" /><rect x="15" y="29" width="1" height="1" fill="#c7913d" /><rect x="16" y="29" width="1" height="1" fill="#8b3a1a" /><rect x="17" y="29" width="2" height="1" fill="#8a6125" /><rect x="19" y="29" width="1" height="1" fill="#050505" /><rect x="20" y="29" width="2" height="1" fill="#8a6125" /><rect x="22" y="29" width="2" height="1" fill="#050505" /><rect x="11" y="30" width="5" height="1" fill="#050505" /><rect x="16" y="30" width="1" height="1" fill="#c7913d" /><rect x="17" y="30" width="2" height="1" fill="#050505" /><rect x="20" y="30" width="2" height="1" fill="#050505" /><rect x="16" y="31" width="1" height="1" fill="#050505" />
</svg>