<svg width="32" height="32" viewBox="0 0 32 32" xmlns="http://www.w3.org/2000/svg" shape-rendering="crispEdges">
    <rect x="16" y="2" width="1" height="1" fill="#785a46" /><rect x="11" y="3" width="1" height="1" fill="#503228" /><rect x="12" y="3" width="2" height="1" fill="#c8c8be" /><rect x="14" y="3" width="5" height="1" fill="#785a46" /><rect x="19" y="3" width="2" height="1" fill="#503228" /><rect x="21" y="3" width="1" height="1" fill="#785a46" /><rect x="9" y="4" width="4" height="1" fill="#c8c8be" /><rect x="13" y="4" width="1" height="1" fill="#503228" /><rect x="14" y="4" width="1" height="1" fill="#785a46" /><rect x="15" y="4" width="1" height="1" fill="#503228" /><rect x="16" y="4" width="1" height="1" fill="#785a46" /><rect x="17" y="4" width="1" height="1" fill="#503228" /><rect x="18" y="4" width="1" height="1" fill="#785a46" /><rect x="19" y="4" width="1" height="1" fill="#503228" /><rect x="20" y="4" width="4" height="1" fill="#785a46" /><rect x="8" y="5" width="4" height="1" fill="#c8c8be" /><rect x="12" y="5" width="1" height="1" fill="#503228" /><rect x="13" y="5" width="5" height="1" fill="#785a46" /><rect x="18" y="5" width="2" height="1" fill="#503228" /><rect x="20" y="5" width="5" height="1" fill="#785a46" /><rect x="7" y="6" width="3" height="1" fill="#c8c8be" /><rect x="10" y="6" width="1" height="1" fill="#503228" /><rect x="11" y="6" width="1" height="1" fill="#785a46" /><rect x="14" y="6" width="1" height="1" fill="#503228" /><rect x="15" y="6" width="2" height="1" fill="#644632" /><rect x="17" y="6" width="2" height="1" fill="#3c281e" /><rect x="21" y="6" width="3" height="1" fill="#785a46" /><rect x="24" y="6" width="1" height="1" fill="#503228" /><rect x="25" y="6" width="1" height="1" fill="#785a46" /><rect x="6" y="7" width="1" height="1" fill="#c8c8be" /><rect x="7" y="7" width="1" height="1" fill="#503228" /><rect x="8" y="7" width="2" height="1" fill="#c8c8be" /><rect x="14" y="7" width="3" height="1" fill="#644632" /><rect x="17" y="7" width="1" height="1" fill="#3c281e" /><rect x="18" y="7" width="1" height="1" fill="#503228" /><rect x="23" y="7" width="3" height="1" fill="#785a46" /><rect x="26" y="7" width="1" height="1" fill="#503228" /><rect x="5" y="8" width="4" height="1" fill="#c8c8be" /><rect x="14" y="8" width="3" height="1" fill="#644632" /><rect x="17" y="8" width="1" height="1" fill="#503228" /><rect x="18" y="8" width="1" height="1" fill="#3c281e" /><rect x="24" y="8" width="4" height="1" fill="#785a46" /><rect x="4" y="9" width="4" height="1" fill="#c8c8be" /><rect x="14" y="9" width="2" height="1" fill="#644632" /><rect x="16" y="9" width="1" height="1" fill="#503228" /><rect x="17" y="9" width="2" height="1" fill="#3c281e" /><rect x="25" y="9" width="3" height="1" fill="#785a46" /><rect x="28" y="9" width="1" height="1" fill="#644632" /><rect x="4" y="10" width="2" height="1" fill="#c8c8be" /><rect x="6" y="10" width="1" height="1" fill="#503228" /><rect x="14" y="10" width="1" height="1" fill="#644632" /><rect x="15" y="10" width="1" height="1" fill="#503228" /><rect x="16" y="10" width="1" height="1" fill="#644632" /><rect x="17" y="10" width="2" height="1" fill="#3c281e" /><rect x="26" y="10" width="1" height="1" fill="#785a46" /><rect x="27" y="10" width="1" height="1" fill="#644632" /><rect x="28" y="10" width="1" height="1" fill="#503228" /><rect x="3" y="11" width="1" height="1" fill="#503228" /><rect x="4" y="11" width="2" height="1" fill="#c8c8be" /><rect x="6" y="11" width="1" height="1" fill="#785a46" /><rect x="14" y="11" width="1" height="1" fill="#503228" /><rect x="15" y="11" width="2" height="1" fill="#644632" /><rect x="17" y="11" width="2" height="1" fill="#3c281e" /><rect x="26" y="11" width="4" height="1" fill="#644632" /><rect x="3" y="12" width="2" height="1" fill="#c8c8be" /><rect x="5" y="12" width="1" height="1" fill="#503228" /><rect x="14" y="12" width="3" height="1" fill="#644632" /><rect x="17" y="12" width="1" height="1" fill="#3c281e" /><rect x="18" y="12" width="1" height="1" fill="#503228" /><rect x="27" y="12" width="3" height="1" fill="#644632" /><rect x="3" y="13" width="1" height="1" fill="#c8c8be" /><rect x="4" y="13" width="1" height="1" fill="#503228" /><rect x="5" y="13" width="1" height="1" fill="#785a46" /><rect x="14" y="13" width="1" height="1" fill="#785a46" /><rect x="15" y="13" width="3" height="1" fill="#644632" /><rect x="18" y="13" width="1" height="1" fill="#785a46" /><rect x="27" y="13" width="1" height="1" fill="#644632" /><rect x="28" y="13" width="1" height="1" fill="#503228" /><rect x="29" y="13" width="1" height="1" fill="#644632" /><rect x="3" y="14" width="3" height="1" fill="#785a46" /><rect x="6" y="14" width="1" height="1" fill="#503228" /><rect x="7" y="14" width="4" height="1" fill="#644632" /><rect x="11" y="14" width="1" height="1" fill="#503228" /><rect x="12" y="14" width="1" height="1" fill="#644632" /><rect x="13" y="14" width="1" height="1" fill="#785a46" /><rect x="14" y="14" width="5" height="1" fill="#644632" /><rect x="19" y="14" width="1" height="1" fill="#785a46" /><rect x="20" y="14" width="1" height="1" fill="#3c281e" /><rect x="21" y="14" width="1" height="1" fill="#503228" /><rect x="22" y="14" width="4" height="1" fill="#3c281e" /><rect x="26" y="14" width="1" height="1" fill="#503228" /><rect x="27" y="14" width="3" height="1" fill="#644632" /><rect x="3" y="15" width="1" height="1" fill="#785a46" /><rect x="4" y="15" width="1" height="1" fill="#503228" /><rect x="5" y="15" width="1" height="1" fill="#785a46" /><rect x="6" y="15" width="4" height="1" fill="#644632" /><rect x="10" y="15" width="1" height="1" fill="#503228" /><rect x="11" y="15" width="4" height="1" fill="#644632" /><rect x="15" y="15" width="3" height="1" fill="#0f140f" /><rect x="18" y="15" width="2" height="1" fill="#644632" /><rect x="20" y="15" width="1" height="1" fill="#503228" /><rect x="21" y="15" width="4" height="1" fill="#3c281e" /><rect x="25" y="15" width="1" height="1" fill="#503228" /><rect x="26" y="15" width="1" height="1" fill="#3c281e" /><rect x="27" y="15" width="3" height="1" fill="#644632" /><rect x="2" y="16" width="4" height="1" fill="#785a46" /><rect x="6" y="16" width="3" height="1" fill="#644632" /><rect x="9" y="16" width="1" height="1" fill="#503228" /><rect x="10" y="16" width="5" height="1" fill="#644632" /><rect x="15" y="16" width="3" height="1" fill="#0f140f" /><rect x="18" y="16" width="3" height="1" fill="#644632" /><rect x="21" y="16" width="3" height="1" fill="#3c281e" /><rect x="24" y="16" width="1" height="1" fill="#503228" /><rect x="25" y="16" width="2" height="1" fill="#3c281e" /><rect x="27" y="16" width="2" height="1" fill="#503228" /><rect x="29" y="16" width="2" height="1" fill="#644632" /><rect x="3" y="17" width="1" height="1" fill="#785a46" /><rect x="4" y="17" width="1" height="1" fill="#503228" /><rect x="5" y="17" width="1" height="1" fill="#785a46" /><rect x="6" y="17" width="2" height="1" fill="#3c281e" /><rect x="8" y="17" width="1" height="1" fill="#503228" /><rect x="9" y="17" width="4" height="1" fill="#3c281e" /><rect x="13" y="17" width="2" height="1" fill="#644632" /><rect x="15" y="17" width="3" height="1" fill="#0f140f" /><rect x="18" y="17" width="2" height="1" fill="#644632" /><rect x="20" y="17" width="3" height="1" fill="#3c281e" /><rect x="23" y="17" width="1" height="1" fill="#503228" /><rect x="24" y="17" width="3" height="1" fill="#3c281e" /><rect x="27" y="17" width="1" height="1" fill="#503228" /><rect x="28" y="17" width="2" height="1" fill="#644632" /><rect x="3" y="18" width="2" height="1" fill="#785a46" /><rect x="5" y="18" width="1" height="1" fill="#503228" /><rect x="6" y="18" width="1" height="1" fill="#3c281e" /><rect x="7" y="18" width="1" height="1" fill="#503228" /><rect x="8" y="18" width="4" height="1" fill="#3c281e" /><rect x="12" y="18" width="1" height="1" fill="#503228" /><rect x="13" y="18" width="1" height="1" fill="#785a46" /><rect x="14" y="18" width="5" height="1" fill="#644632" /><rect x="19" y="18" width="1" height="1" fill="#785a46" /><rect x="20" y="18" width="2" height="1" fill="#3c281e" /><rect x="22" y="18" width="1" height="1" fill="#503228" /><rect x="23" y="18" width="4" height="1" fill="#3c281e" /><rect x="27" y="18" width="1" height="1" fill="#503228" /><rect x="28" y="18" width="2" height="1" fill="#644632" /><rect x="3" y="19" width="3" height="1" fill="#503228" /><rect x="14" y="19" width="1" height="1" fill="#785a46" /><rect x="15" y="19" width="3" height="1" fill="#644632" /><rect x="18" y="19" width="1" height="1" fill="#785a46" /><rect x="27" y="19" width="3" height="1" fill="#503228" /><rect x="3" y="20" width="1" height="1" fill="#503228" /><rect x="4" y="20" width="2" height="1" fill="#785a46" /><rect x="14" y="20" width="1" height="1" fill="#3c281e" /><rect x="15" y="20" width="1" height="1" fill="#503228" /><rect x="16" y="20" width="1" height="1" fill="#644632" /><rect x="17" y="20" width="2" height="1" fill="#3c281e" /><rect x="27" y="20" width="3" height="1" fill="#644632" /><rect x="3" y="21" width="4" height="1" fill="#785a46" /><rect x="14" y="21" width="1" height="1" fill="#503228" /><rect x="15" y="21" width="4" height="1" fill="#3c281e" /><rect x="26" y="21" width="1" height="1" fill="#503228" /><rect x="27" y="21" width="3" height="1" fill="#644632" /><rect x="4" y="22" width="3" height="1" fill="#785a46" /><rect x="14" y="22" width="4" height="1" fill="#3c281e" /><rect x="18" y="22" width="1" height="1" fill="#503228" /><rect x="26" y="22" width="3" height="1" fill="#644632" /><rect x="4" y="23" width="4" height="1" fill="#785a46" /><rect x="14" y="23" width="3" height="1" fill="#3c281e" /><rect x="17" y="23" width="1" height="1" fill="#503228" /><rect x="18" y="23" width="1" height="1" fill="#3c281e" /><rect x="25" y="23" width="4" height="1" fill="#644632" /><rect x="5" y="24" width="1" height="1" fill="#785a46" /><rect x="6" y="24" width="1" height="1" fill="#503228" /><rect x="7" y="24" width="2" height="1" fill="#785a46" /><rect x="14" y="24" width="2" height="1" fill="#3c281e" /><rect x="16" y="24" width="1" height="1" fill="#503228" /><rect x="17" y="24" width="2" height="1" fill="#3c281e" /><rect x="24" y="24" width="1" height="1" fill="#644632" /><rect x="25" y="24" width="1" height="1" fill="#503228" /><rect x="26" y="24" width="2" height="1" fill="#644632" /><rect x="6" y="25" width="4" height="1" fill="#785a46" /><rect x="14" y="25" width="1" height="1" fill="#3c281e" /><rect x="15" y="25" width="1" height="1" fill="#503228" /><rect x="16" y="25" width="3" height="1" fill="#3c281e" /><rect x="23" y="25" width="1" height="1" fill="#644632" /><rect x="24" y="25" width="1" height="1" fill="#503228" /><rect x="25" y="25" width="2" height="1" fill="#644632" /><rect x="7" y="26" width="1" height="1" fill="#503228" /><rect x="8" y="26" width="3" height="1" fill="#785a46" /><rect x="11" y="26" width="1" height="1" fill="#644632" /><rect x="14" y="26" width="1" height="1" fill="#503228" /><rect x="15" y="26" width="4" height="1" fill="#3c281e" /><rect x="21" y="26" width="1" height="1" fill="#503228" /><rect x="22" y="26" width="4" height="1" fill="#644632" /><rect x="8" y="27" width="8" height="1" fill="#3c281e" /><rect x="16" y="27" width="4" height="1" fill="#503228" /><rect x="20" y="27" width="5" height="1" fill="#3c281e" /><rect x="9" y="28" width="1" height="1" fill="#3c281e" /><rect x="10" y="28" width="1" height="1" fill="#503228" /><rect x="11" y="28" width="2" height="1" fill="#3c281e" /><rect x="13" y="28" width="1" height="1" fill="#503228" /><rect x="14" y="28" width="2" height="1" fill="#3c281e" /><rect x="16" y="28" width="1" height="1" fill="#503228" /><rect x="17" y="28" width="2" height="1" fill="#3c281e" /><rect x="19" y="28" width="1" height="1" fill="#503228" /><rect x="20" y="28" width="4" height="1" fill="#3c281e" /><rect x="11" y="29" width="8" height="1" fill="#3c281e" /><rect x="19" y="29" width="1" height="1" fill="#503228" /><rect x="20" y="29" width="2" height="1" fill="#3c281e" /><rect x="16" y="30" width="1" height="1" fill="#3c281e" />
</svg>