<svg width="512" height="512" viewBox="0 0 512 512" xmlns="http://www.w3.org/2000/svg">
<rect x="176" y="64" width="16" height="16" fill="#503228" shape-rendering="crispEdges" />
<rect x="192" y="64" width="16" height="16" fill="#503228" shape-rendering="crispEdges" />
<rect x="208" y="64" width="16" height="16" fill="#503228" shape-rendering="crispEdges" />
<rect x="224" y="64" width="16" height="16" fill="#503228" shape-rendering="crispEdges" />
<rect x="176" y="80" width="16" height="16" fill="#3c281e" shape-rendering="crispEdges" />
<rect x="192" y="80" width="16" height="16" fill="#3c281e" shape-rendering="crispEdges" />
<rect x="208" y="80" width="16" height="16" fill="#3c281e" shape-rendering="crispEdges" />
<rect x="224" y="80" width="16" height="16" fill="#3c281e" shape-rendering="crispEdges" />
<rect x="176" y="96" width="16" height="16" fill="#3c281e" shape-rendering="crispEdges" />
<rect x="192" y="96" width="16" height="16" fill="#3c281e" shape-rendering="crispEdges" />
<rect x="208" y="96" width="16" height="16" fill="#3c281e" shape-rendering="crispEdges" />
<rect x="224" y="96" width="16" height="16" fill="#3c281e" shape-rendering="crispEdges" />
<rect x="160" y="112" width="16" height="16" fill="#828282" shape-rendering="crispEdges" />
<rect x="176" y="112" width="16" height="16" fill="#828282" shape-rendering="crispEdges" />
<rect x="192" y="112" width="16" height="16" fill="#828282" shape-rendering="crispEdges" />
<rect x="208" y="112" width="16" height="16" fill="#828282" shape-rendering="crispEdges" />
<rect x="224" y="112" width="16" height="16" fill="#828282" shape-rendering="crispEdges" />
<rect x="240" y="112" width="16" height="16" fill="#828282" shape-rendering="crispEdges" />
<rect x="160" y="128" width="16" height="16" fill="#828282" shape-rendering="crispEdges" />
<rect x="176" y="128" width="16" height="16" fill="#64646e" shape-rendering="crispEdges" />
<rect x="192" y="128" width="16" height="16" fill="#c8c8be" shape-rendering="crispEdges" />
<rect x="208" y="128" width="16" height="16" fill="#c8c8be" shape-rendering="crispEdges" />
<rect x="224" y="128" width="16" height="16" fill="#c8c8be" shape-rendering="crispEdges" />
<rect x="240" y="128" width="16" height="16" fill="#828282" shape-rendering="crispEdges" />
<rect x="160" y="144" width="16" height="16" fill="#828282" shape-rendering="crispEdges" />
<rect x="176" y="144" width="16" height="16" fill="#3c281e" shape-rendering="crispEdges" />
<rect x="192" y="144" width="16" height="16" fill="#785a46" shape-rendering="crispEdges" />
<rect x="208" y="144" width="16" height="16" fill="#785a46" shape-rendering="crispEdges" />
<rect x="224" y="144" width="16" height="16" fill="#64646e" shape-rendering="crispEdges" />
<rect x="240" y="144" width="16" height="16" fill="#3c281e" shape-rendering="crispEdges" />
<rect x="144" y="160" width="16" height="16" fill="#828282" shape-rendering="crispEdges" />
<rect x="160" y="160" width="16" height="16" fill="#64646e" shape-rendering="crispEdges" />
<rect x="176" y="160" width="16" height="16" fill="#64646e" shape-rendering="crispEdges" />
<rect x="192" y="160" width="16" height="16" fill="#785a46" shape-rendering="crispEdges" />
<rect x="208" y="160" width="16" height="16" fill="#785a46" shape-rendering="crispEdges" />
<rect x="224" y="160" width="16" height="16" fill="#64646e" shape-rendering="crispEdges" />
<rect x="240" y="160" width="16" height="16" fill="#64646e" shape-rendering="crispEdges" />
<rect x="256" y="160" width="16" height="16" fill="#828282" shape-rendering="crispEdges" />
<rect x="144" y="176" width="16" height="16" fill="#828282" shape-rendering="crispEdges" />
<rect x="160" y="176" width="16" height="16" fill="#64646e" shape-rendering="crispEdges" />
<rect x="176" y="176" width="16" height="16" fill="#785a46" shape-rendering="crispEdges" />
<rect x="192" y="176" width="16" height="16" fill="#785a46" shape-rendering="crispEdges" />
<rect x="208" y="176" width="16" height="16" fill="#785a46" shape-rendering="crispEdges" />
<rect x="224" y="176" width="16" height="16" fill="#785a46" shape-rendering="crispEdges" />
<rect x="240" y="176" width="16" height="16" fill="#64646e" shape-rendering="crispEdges" />
<rect x="256" y="176" width="16" height="16" fill="#828282" shape-rendering="crispEdges" />
<rect x="128" y="192" width="16" height="16" fill="#828282" shape-rendering="crispEdges" />
<rect x="144" y="192" width="16" height="16" fill="#64646e" shape-rendering="crispEdges" />
<rect x="160" y="192" width="16" height="16" fill="#64646e" shape-rendering="crispEdges" />
<rect x="176" y="192" width="16" height="16" fill="#785a46" shape-rendering="crispEdges" />
<rect x="192" y="192" width="16" height="16" fill="#785a46" shape-rendering="crispEdges" />
<rect x="208" y="192" width="16" height="16" fill="#785a46" shape-rendering="crispEdges" />
<rect x="224" y="192" width="16" height="16" fill="#785a46" shape-rendering="crispEdges" />
<rect x="240" y="192" width="16" height="16" fill="#64646e" shape-rendering="crispEdges" />
<rect x="256" y="192" width="16" height="16" fill="#64646e" shape-rendering="crispEdges" />
<rect x="272" y="192" width="16" height="16" fill="#828282" shape-rendering="crispEdges" />
<rect x="128" y="208" width="16" height="16" fill="#828282" shape-rendering="crispEdges" />
<rect x="144" y="208" width="16" height="16" fill="#64646e" shape-rendering="crispEdges" />
<rect x="160" y="208" width="16" height="16" fill="#785a46" shape-rendering="crispEdges" />
<rect x="176" y="208" width="16" height="16" fill="#050505" shape-rendering="crispEdges" />
<rect x="192" y="208" width="16" height="16" fill="#785a46" shape-rendering="crispEdges" />
<rect x="208" y="208" width="16" height="16" fill="#785a46" shape-rendering="crispEdges" />
<rect x="224" y="208" width="16" height="16" fill="#644632" shape-rendering="crispEdges" />
<rect x="240" y="208" width="16" height="16" fill="#785a46" shape-rendering="crispEdges" />
<rect x="256" y="208" width="16" height="16" fill="#64646e" shape-rendering="crispEdges" />
<rect x="272" y="208" width="16" height="16" fill="#828282" shape-rendering="crispEdges" />
<rect x="128" y="224" width="16" height="16" fill="#828282" shape-rendering="crispEdges" />
<rect x="144" y="224" width="16" height="16" fill="#64646e" shape-rendering="crispEdges" />
<rect x="160" y="224" width="16" height="16" fill="#785a46" shape-rendering="crispEdges" />
<rect x="176" y="224" width="16" height="16" fill="#785a46" shape-rendering="crispEdges" />
<rect x="192" y="224" width="16" height="16" fill="#785a46" shape-rendering="crispEdges" />
<rect x="208" y="224" width="16" height="16" fill="#785a46" shape-rendering="crispEdges" />
<rect x="224" y="224" width="16" height="16" fill="#785a46" shape-rendering="crispEdges" />
<rect x="240" y="224" width="16" height="16" fill="#785a46" shape-rendering="crispEdges" />
<rect x="256" y="224" width="16" height="16" fill="#64646e" shape-rendering="crispEdges" />
<rect x="272" y="224" width="16" height="16" fill="#828282" shape-rendering="crispEdges" />
<rect x="112" y="240" width="16" height="16" fill="#828282" shape-rendering="crispEdges" />
<rect x="128" y="240" width="16" height="16" fill="#64646e" shape-rendering="crispEdges" />
<rect x="144" y="240" width="16" height="16" fill="#64646e" shape-rendering="crispEdges" />
<rect x="160" y="240" width="16" height="16" fill="#785a46" shape-rendering="crispEdges" />
<rect x="176" y="240" width="16" height="16" fill="#644632" shape-rendering="crispEdges" />
<rect x="192" y="240" width="16" height="16" fill="#785a46" shape-rendering="crispEdges" />
<rect x="208" y="240" width="16" height="16" fill="#785a46" shape-rendering="crispEdges" />
<rect x="224" y="240" width="16" height="16" fill="#785a46" shape-rendering="crispEdges" />
<rect x="240" y="240" width="16" height="16" fill="#785a46" shape-rendering="crispEdges" />
<rect x="256" y="240" width="16" height="16" fill="#64646e" shape-rendering="crispEdges" />
<rect x="272" y="240" width="16" height="16" fill="#3c281e" shape-rendering="crispEdges" />
<rect x="288" y="240" width="16" height="16" fill="#3c281e" shape-rendering="crispEdges" />
<rect x="112" y="256" width="16" height="16" fill="#828282" shape-rendering="crispEdges" />
<rect x="128" y="256" width="16" height="16" fill="#64646e" shape-rendering="crispEdges" />
<rect x="144" y="256" width="16" height="16" fill="#785a46" shape-rendering="crispEdges" />
<rect x="160" y="256" width="16" height="16" fill="#785a46" shape-rendering="crispEdges" />
<rect x="176" y="256" width="16" height="16" fill="#785a46" shape-rendering="crispEdges" />
<rect x="192" y="256" width="16" height="16" fill="#785a46" shape-rendering="crispEdges" />
<rect x="208" y="256" width="16" height="16" fill="#050505" shape-rendering="crispEdges" />
<rect x="224" y="256" width="16" height="16" fill="#785a46" shape-rendering="crispEdges" />
<rect x="240" y="256" width="16" height="16" fill="#785a46" shape-rendering="crispEdges" />
<rect x="256" y="256" width="16" height="16" fill="#785a46" shape-rendering="crispEdges" />
<rect x="272" y="256" width="16" height="16" fill="#64646e" shape-rendering="crispEdges" />
<rect x="288" y="256" width="16" height="16" fill="#828282" shape-rendering="crispEdges" />
<rect x="112" y="272" width="16" height="16" fill="#828282" shape-rendering="crispEdges" />
<rect x="128" y="272" width="16" height="16" fill="#64646e" shape-rendering="crispEdges" />
<rect x="144" y="272" width="16" height="16" fill="#785a46" shape-rendering="crispEdges" />
<rect x="160" y="272" width="16" height="16" fill="#785a46" shape-rendering="crispEdges" />
<rect x="176" y="272" width="16" height="16" fill="#785a46" shape-rendering="crispEdges" />
<rect x="192" y="272" width="16" height="16" fill="#785a46" shape-rendering="crispEdges" />
<rect x="208" y="272" width="16" height="16" fill="#785a46" shape-rendering="crispEdges" />
<rect x="224" y="272" width="16" height="16" fill="#785a46" shape-rendering="crispEdges" />
<rect x="240" y="272" width="16" height="16" fill="#785a46" shape-rendering="crispEdges" />
<rect x="256" y="272" width="16" height="16" fill="#785a46" shape-rendering="crispEdges" />
<rect x="272" y="272" width="16" height="16" fill="#64646e" shape-rendering="crispEdges" />
<rect x="288" y="272" width="16" height="16" fill="#828282" shape-rendering="crispEdges" />
<rect x="112" y="288" width="16" height="16" fill="#828282" shape-rendering="crispEdges" />
<rect x="128" y="288" width="16" height="16" fill="#64646e" shape-rendering="crispEdges" />
<rect x="144" y="288" width="16" height="16" fill="#785a46" shape-rendering="crispEdges" />
<rect x="160" y="288" width="16" height="16" fill="#785a46" shape-rendering="crispEdges" />
<rect x="176" y="288" width="16" height="16" fill="#785a46" shape-rendering="crispEdges" />
<rect x="192" y="288" width="16" height="16" fill="#785a46" shape-rendering="crispEdges" />
<rect x="208" y="288" width="16" height="16" fill="#644632" shape-rendering="crispEdges" />
<rect x="224" y="288" width="16" height="16" fill="#785a46" shape-rendering="crispEdges" />
<rect x="240" y="288" width="16" height="16" fill="#785a46" shape-rendering="crispEdges" />
<rect x="256" y="288" width="16" height="16" fill="#785a46" shape-rendering="crispEdges" />
<rect x="272" y="288" width="16" height="16" fill="#64646e" shape-rendering="crispEdges" />
<rect x="288" y="288" width="16" height="16" fill="#828282" shape-rendering="crispEdges" />
<rect x="112" y="304" width="16" height="16" fill="#3c281e" shape-rendering="crispEdges" />
<rect x="128" y="304" width="16" height="16" fill="#64646e" shape-rendering="crispEdges" />
<rect x="144" y="304" width="16" height="16" fill="#64646e" shape-rendering="crispEdges" />
<rect x="160" y="304" width="16" height="16" fill="#785a46" shape-rendering="crispEdges" />
<rect x="176" y="304" width="16" height="16" fill="#785a46" shape-rendering="crispEdges" />
<rect x="192" y="304" width="16" height="16" fill="#785a46" shape-rendering="crispEdges" />
<rect x="208" y="304" width="16" height="16" fill="#785a46" shape-rendering="crispEdges" />
<rect x="224" y="304" width="16" height="16" fill="#785a46" shape-rendering="crispEdges" />
<rect x="240" y="304" width="16" height="16" fill="#785a46" shape-rendering="crispEdges" />
<rect x="256" y="304" width="16" height="16" fill="#64646e" shape-rendering="crispEdges" />
<rect x="272" y="304" width="16" height="16" fill="#64646e" shape-rendering="crispEdges" />
<rect x="288" y="304" width="16" height="16" fill="#3c281e" shape-rendering="crispEdges" />
<rect x="128" y="320" width="16" height="16" fill="#828282" shape-rendering="crispEdges" />
<rect x="144" y="320" width="16" height="16" fill="#64646e" shape-rendering="crispEdges" />
<rect x="160" y="320" width="16" height="16" fill="#785a46" shape-rendering="crispEdges" />
<rect x="176" y="320" width="16" height="16" fill="#785a46" shape-rendering="crispEdges" />
<rect x="192" y="320" width="16" height="16" fill="#785a46" shape-rendering="crispEdges" />
<rect x="208" y="320" width="16" height="16" fill="#785a46" shape-rendering="crispEdges" />
<rect x="224" y="320" width="16" height="16" fill="#785a46" shape-rendering="crispEdges" />
<rect x="240" y="320" width="16" height="16" fill="#785a46" shape-rendering="crispEdges" />
<rect x="256" y="320" width="16" height="16" fill="#64646e" shape-rendering="crispEdges" />
<rect x="272" y="320" width="16" height="16" fill="#3c281e" shape-rendering="crispEdges" />
<rect x="128" y="336" width="16" height="16" fill="#828282" shape-rendering="crispEdges" />
<rect x="144" y="336" width="16" height="16" fill="#64646e" shape-rendering="crispEdges" />
<rect x="160" y="336" width="16" height="16" fill="#64646e" shape-rendering="crispEdges" />
<rect x="176" y="336" width="16" height="16" fill="#785a46" shape-rendering="crispEdges" />
<rect x="192" y="336" width="16" height="16" fill="#785a46" shape-rendering="crispEdges" />
<rect x="208" y="336" width="16" height="16" fill="#785a46" shape-rendering="crispEdges" />
<rect x="224" y="336" width="16" height="16" fill="#785a46" shape-rendering="crispEdges" />
<rect x="240" y="336" width="16" height="16" fill="#64646e" shape-rendering="crispEdges" />
<rect x="256" y="336" width="16" height="16" fill="#3c281e" shape-rendering="crispEdges" />
<rect x="272" y="336" width="16" height="16" fill="#3c281e" shape-rendering="crispEdges" />
<rect x="144" y="352" width="16" height="16" fill="#828282" shape-rendering="crispEdges" />
<rect x="160" y="352" width="16" height="16" fill="#64646e" shape-rendering="crispEdges" />
<rect x="176" y="352" width="16" height="16" fill="#64646e" shape-rendering="crispEdges" />
<rect x="192" y="352" width="16" height="16" fill="#64646e" shape-rendering="crispEdges" />
<rect x="208" y="352" width="16" height="16" fill="#64646e" shape-rendering="crispEdges" />
<rect x="224" y="352" width="16" height="16" fill="#64646e" shape-rendering="crispEdges" />
<rect x="240" y="352" width="16" height="16" fill="#64646e" shape-rendering="crispEdges" />
<rect x="256" y="352" width="16" height="16" fill="#828282" shape-rendering="crispEdges" />
<rect x="160" y="368" width="16" height="16" fill="#828282" shape-rendering="crispEdges" />
<rect x="176" y="368" width="16" height="16" fill="#828282" shape-rendering="crispEdges" />
<rect x="192" y="368" width="16" height="16" fill="#828282" shape-rendering="crispEdges" />
<rect x="208" y="368" width="16" height="16" fill="#828282" shape-rendering="crispEdges" />
<rect x="224" y="368" width="16" height="16" fill="#828282" shape-rendering="crispEdges" />
<rect x="240" y="368" width="16" height="16" fill="#828282" shape-rendering="crispEdges" />
</svg>